<?xml version="1.0" encoding="utf-8"?>
<!-- Generator: Adobe Illustrator 24.2.1, SVG Export Plug-In . SVG Version: 6.00 Build 0)  -->
<svg version="1.1" id="Ebene_1" xmlns="http://www.w3.org/2000/svg" xmlns:xlink="http://www.w3.org/1999/xlink" x="0px" y="0px"
	 viewBox="0 0 900 600" style="enable-background:new 0 0 900 600;" xml:space="preserve">
<style type="text/css">
	.st0{fill:#FEFEFE;}
	.st1{fill:#E4E4E4;}
	.st2{fill:#302F42;}
	.st3{fill:#3F3D56;}
	.st4{fill:#6E65FE;}
	.st5{fill:#E5E5E5;}
	.st6{fill:#57566B;}
	.st7{fill:#FBB6B6;}
	.st8{fill:#E7E7E7;}
	.st9{fill:#313042;}
	.st10{fill:#7D75FE;}
	.st11{fill:#F6F5FE;}
	.st12{fill:#FCFCFE;}
	.st13{fill:#E6E6E6;}
</style>
<g>
	<path class="st0" d="M451.3,1.6c149.2,0,298.5,0,447.7-0.1c3.2,0,3.8,0.7,3.8,3.8c-0.1,196.9-0.1,393.8,0,590.8
		c0,3.1-0.5,3.9-3.8,3.9c-298.4-0.1-596.7-0.1-895.1,0c-3.4,0-4-0.8-4-4C0.1,399,0.1,202.1,0,5.2c0-2.8,0.5-3.7,3.5-3.7
		C152.8,1.6,302,1.6,451.3,1.6z M330.9,447c0.3-4,2.1-7.6,3.3-11.3c2.6,1.1,2.4-1.3,2.8-2.5c3.7-11.4,7.3-22.8,10.9-34.3
		c7.6-24,15.3-47.9,22.9-71.9c4.4-13.9-3.3-28.1-16.9-30.5c-10.5-1.9-21.2-2.9-31.8-4.3c-0.4-0.5-0.9-0.9-0.4-1.7
		c6-9.9,12-19.8,18.3-30.1c3.7,7.3,7.3,14.1,10.7,21c4.4,8.9,16.1,10,21.4,1.7c9.6-15.1,18.6-30.4,28-45.6c1-1.7,0.3-2.2-0.9-3
		c0.9-1.3,1.8-2.5,2.6-3.8c2.5-3.8,6.4-6.7,7.7-11.3c10.2-2.4,20.5-3.4,30.8-5.3c2.6-0.5,4.2-1.5,3.7-4.3
		c-1.8-10.8-3.5-21.6-5.3-32.4c-0.4-2.6-2-3.2-4.6-2.8c-11.2,1.9-22.4,3.7-33.6,5.5c-22.5,3.6-45,7.2-67.5,10.9
		c1.7-4.5,4.2-7.9,9.3-8.8c1.7-0.3,3.1-1.3,4.5-2.1c6.4-3.4,9.9-9.3,13.1-15.4c9.8-2.6,16-12.6,13.7-22.6
		c-2.7-11.8-11.1-18.4-21.9-21.8c-12.2-3.9-25-4.2-37.6-2c-12.9,2.2-18.4,8-20.7,20.9c-1,5.3-3.7,9.4-8,12.4
		c-2.7,1.9-5.6,3.3-8.6,4.6c-4.4,1.9-9,3.5-13,6.3c-6.5,4.5-9.4,10.6-8.2,18.5c1.1,7.4,5.3,12.6,11.3,16.6c-0.3,1.9-2,3-3,4.4
		c-18,27.1-38.2,52.5-59.2,77.3c-2.2,2.5-3.5,5.1-3.2,8.4c-7.1,6.3-9.3,14.5-9.5,23.6c-23.1,3.6-42.9,14.1-59.8,29.9
		c-11.4,10.7-20.1,23.5-26.2,38c-9.1,21.6-11.1,43.9-6.6,66.9c3.5,17.9,11.1,33.7,22.3,48c12.7,16.2,28.7,27.7,47.7,35.5
		c5.2,2.1,10.8,2.8,15.7,5.5c-1.6,0-3.1,0.1-4.7,0.1c-27.2,0-54.4,0-81.5,0.1c-1.6,0-4.3-1.1-4.4,1.2c-0.1,1.5,2.9,0.7,4.4,0.7
		c221.1,0,442.2,0.1,663.2,0.1c14.4,0,28.7,0,43.1,0c1.1,0,2.9,0.5,2.9-1c0-1.6-1.8-0.9-2.9-0.9c-11.6-0.1-23.3,0-34.9,0
		c-1.4,0-2.9-0.1-4.3-0.2c1.3-40,2-80.1,10.3-119.6c-18.2,26.7-30.5,55.7-34,89c-4.5-12.1-8.4-23.4-10.4-36.1
		c-3.6,16.5-3.3,32.2,0,47.8c1.4,6.5,4.2,12.5,6,18.9c-1.4,0.1-2.9,0.1-4.3,0.1c-164.2,0-328.4,0-492.6,0c-1.4,0-2.9-0.1-4.3-0.1
		c4.4-2.3,9.3-3.1,13.8-4.8c24.7-9.5,43.9-25.5,57.8-48c1.6-2.6,1.9-6.3,5.4-7.7c2.6,2.6,5.2,5.1,7.8,7.7c1.3,1.3,2.8,2.4,4.7,2.6
		c3.6,0.5,6.5-0.5,8.4-3.7c2-3.4,1.8-7-1-9.7c-2.7-2.7-3.2-5.5-3-9.1C331.1,457.1,331.6,452.1,330.9,447z M639.2,305.9
		c34.5,0,69,0,103.5,0c5.6,0,6.3-0.7,6.3-6.3c0-15.9,0-31.9,0-47.8c0-5-1.2-6.3-6.2-6.3c-69.1,0-138.2,0-207.4,0c-4.7,0-6,1.3-6,6
		c0,16.2,0,32.4,0,48.6c0,5.3,0.5,5.7,5.9,5.7C570,305.9,604.6,305.9,639.2,305.9z M639.1,218c34.6,0,69.2,0,103.9,0
		c5.3,0,6.1-0.7,6.1-6.1c0-16.1,0-32.1,0-48.2c0-4.7-1.3-6.1-6-6.1c-69.1,0-138.2,0-207.4,0c-5,0-6.2,1.3-6.2,6.3
		c0,15.9,0,31.9,0,47.8c0,5.9,0.3,6.3,6.1,6.3C570.1,218,604.6,218,639.1,218z M639.4,64.3c-18.3-0.1-33,14.4-33.1,32.6
		c-0.1,18.5,14.4,33.3,32.7,33.4c18.4,0.1,33.2-14.7,33.2-33C672.2,79.1,657.5,64.4,639.4,64.3z"/>
	<path class="st1" d="M313.9,474.4c-3.5,1.4-3.8,5.1-5.4,7.7c-13.9,22.6-33.1,38.5-57.8,48c-4.6,1.8-9.5,2.5-13.8,4.8
		c-17.2,0-34.4,0-51.7,0c-5-2.6-10.6-3.3-15.7-5.5c-18.9-7.8-34.9-19.3-47.7-35.5c-11.3-14.3-18.8-30.1-22.3-48
		c-4.5-23-2.5-45.2,6.6-66.9c6.1-14.5,14.7-27.3,26.2-38c16.9-15.8,36.7-26.3,59.8-29.9c1.4,14.9,9,25.2,22.8,31
		c7.1,3,14.6,2.3,22,1.7c17.3-1.4,34.6-2.8,51.8-4.2c3,5.2,8.1,8.6,11.8,13.2c-0.7,4.9-1.3,9.8-2.1,14.7
		c-3.2,20.4-6.5,40.9-9.7,61.3c-0.2,1.6-1,3.4,1,4.5c-1.1,0.8-1.6,2-1.8,3.3c-1.5,0-2.7,0.7-3.8,1.8c-2.9,3-5.9,5.9-8.8,8.9
		c-4.6,4.8-4.6,10.4,0,15.3c6.2,6.5,12.6,12.9,18.9,19.3c1.3,1.3,2.8,2.4,4.6,2.7c3.6,0.5,6.5-0.5,8.4-3.6c2-3.4,1.8-6.9-1-9.7
		c-2.7-2.7-3.3-5.5-3-9.1c0.4-5,0.8-10.1,0.2-15.2c0-2.2,0.8-4.2,1.6-6.2c1.5,0.1,1.5-1.1,1.8-2.1c4.6-14.6,9.2-29.3,13.9-43.9
		c0.8-2.4,1-5.2,3.4-7.8c-0.6,4-1.5,7.2-1.5,10.4c0.2,11.3,2.6,22.5,2,33.9c-1.4,4.4-1.1,9.1-2.2,13.6c-1.5,8.6-4.2,16.9-7.7,24.8
		C314.2,471.1,312.9,472.6,313.9,474.4z"/>
	<path class="st2" d="M289.7,433.5c-2-1.2-1.2-3-1-4.5c3.2-20.4,6.5-40.9,9.7-61.3c0.8-4.9,1.4-9.8,2.1-14.7
		c0.7-4.1,1.5-8.1,2.2-12.2c0.3-1.7-0.2-2.3-2-2.1c-4,0.5-8,0.7-12,1.1c-17.3,1.4-34.6,2.8-51.8,4.2c-7.4,0.6-14.9,1.3-22-1.7
		c-13.8-5.7-21.4-16.1-22.8-31c0.1-9.1,2.4-17.3,9.5-23.6c1.4,1.5,2.7,2.9,4.8,3.7c20.3,7,41,11.6,62.7,10.5c6-0.3,11.9-1.4,17.6-3
		c3.3-0.9,5.4-5.9,3.6-8.8c-8.2-12.9-13.4-27.3-19.6-41.2c-1.1-2.4-2.9-4.8-2.8-7.9c1.6,0.2,1.7,1.4,2.1,2.3
		c8.7,16.5,17.5,32.9,25.8,49.5c2.4,4.9,5.3,8.3,10.7,9c5.8,0.8,9.6-2.4,12.5-7c0.8-1.2,1.5-2.5,3.2-2.6c10.6,1.4,21.3,2.5,31.8,4.3
		c13.6,2.4,21.3,16.6,16.9,30.5c-7.6,24-15.3,47.9-22.9,71.9c-3.6,11.4-7.2,22.9-10.9,34.3c-0.4,1.2-0.2,3.6-2.8,2.5
		c-3.1-1.5-6.3-3-9.4-4.5c0.5-11.4-1.8-22.6-2-33.9c-0.1-3.2,0.9-6.4,1.5-10.4c-2.4,2.7-2.6,5.4-3.4,7.8
		c-4.7,14.6-9.3,29.3-13.9,43.9c-0.3,1-0.4,2.1-1.8,2.1C300.1,438,295,435.5,289.7,433.5z"/>
	<path class="st3" d="M322.1,292.3c-1.7,0.2-2.4,1.5-3.2,2.6c-2.9,4.6-6.7,7.8-12.5,7c-5.4-0.7-8.3-4.1-10.7-9
		c-8.3-16.6-17.1-33-25.8-49.5c-0.4-0.8-0.5-2.1-2.1-2.3c-0.2,3.1,1.7,5.4,2.8,7.9c6.2,13.9,11.4,28.3,19.6,41.2
		c1.8,2.9-0.2,7.9-3.6,8.8c-5.8,1.6-11.6,2.7-17.6,3c-21.7,1-42.4-3.6-62.7-10.5c-2.2-0.7-3.5-2.1-4.8-3.7c-0.4-3.3,1-5.9,3.2-8.4
		c21-24.8,41.1-50.2,59.2-77.3c1-1.5,2.7-2.5,3-4.4c2.2-0.3,3.1-2.3,4.5-3.5c4.7-4,9-7.5,16.1-3.7c6.9,3.7,14.7,3.7,22.3,1
		c3-1.1,4.7-4.1,7.9-4.7c3.4,1.7,6.9,3.3,10.3,5c-9.1,2.2-18.5,3.1-27.6,4.8c-5,0.9-5.3,1.5-4.5,6.4c1.5,9.5,3.1,19,4.6,28.5
		c0.7,4.6,1.5,5.1,6.3,4.3c9.1-1.5,18.2-2.9,27.4-4.3c-0.9,2.4-1.6,4.9-2.7,7.3c-0.8,1.9-0.4,2.8,1.4,3.6c3.3,1.5,6.6,3,9.8,4.7
		c2,1.1,3.2,0.6,4.4-1.2c3.1-4.4,6.5-8.7,9.8-13c2.1,6.5,4.3,13,6.6,20c6-7.9,11.7-15.4,17.4-22.8c0.9-1.2,1.4-3,3.5-2.7
		c4.8,2.7,9.8,5.1,14.9,7.2c1.1,0.8,1.9,1.3,0.9,3c-9.4,15.2-18.4,30.6-28,45.6c-5.3,8.3-17,7.2-21.4-1.7c-3.4-6.9-6.9-13.6-10.7-21
		c-6.3,10.3-12.3,20.2-18.3,30.1C321.2,291.4,321.7,291.8,322.1,292.3z"/>
	<path class="st2" d="M317.8,186.7c-3.2,0.6-5,3.6-7.9,4.7c-7.6,2.8-15.4,2.7-22.3-1c-7.1-3.8-11.4-0.3-16.1,3.7
		c-1.4,1.2-2.3,3.2-4.5,3.5c-6-4-10.2-9.2-11.3-16.6c-1.2-7.9,1.7-14,8.2-18.5c4-2.8,8.6-4.4,13-6.3c3-1.3,5.9-2.7,8.6-4.6
		c4.3-3.1,7.1-7.1,8-12.4c2.4-12.9,7.8-18.7,20.7-20.9c12.6-2.2,25.3-1.9,37.6,2c10.8,3.5,19.2,10,21.9,21.8
		c2.3,10-3.9,20-13.7,22.6c-0.6-0.7,1-2.7-1.4-2.2c-10.6,2.4-17.9-3.1-23.7-10.8c-2.6-3.4-4.9-3.1-7.8-1.8c-3.5,1.6-5.2,4.6-6.1,8.1
		c-1,4-0.8,8-0.6,12.1c0.2,5.1,0.3,10.2-2.7,14.7C317.1,185.6,317.5,186.1,317.8,186.7z"/>
	<path class="st4" d="M334.1,231.4c-9.1,1.4-18.3,2.8-27.4,4.3c-4.7,0.8-5.5,0.3-6.3-4.3c-1.5-9.5-3.1-19-4.6-28.5
		c-0.8-5-0.4-5.5,4.5-6.4c9.2-1.7,18.5-2.7,27.6-4.8c1.7-0.2,3.3-0.4,5-0.7c22.5-3.6,45-7.2,67.5-10.9c11.2-1.8,22.4-3.6,33.6-5.5
		c2.5-0.4,4.1,0.2,4.6,2.8c1.8,10.8,3.5,21.6,5.3,32.4c0.5,2.9-1.1,3.9-3.7,4.3c-10.2,1.8-20.6,2.9-30.8,5.3
		c-8.1,0.8-16.2,2-24.1,3.9c-9.6,0.7-18.9,3.1-28.4,4.2c-2.4-6-5.7-8.8-10.7-8.6c-5.6,0.2-8.6,3.7-10.4,8.6
		C335.4,228.8,334.7,230.1,334.1,231.4z M318.8,202.9c-6.1-0.1-11.1,4.8-11,10.8c0,5.8,4.9,10.6,10.8,10.7c6,0,10.8-4.5,10.9-10.4
		C329.6,207.8,325,203,318.8,202.9z M345.5,216.6c0.8-0.1,1.8-0.2,2.9-0.4c9.1-1.5,18.2-3,27.4-4.5c17-2.8,33.9-5.5,50.9-8.3
		c1.5-0.3,4,0,3.7-2.4c-0.3-2.5-2.5-1.5-4.1-1.2c-18.6,3-37.3,6-55.9,9c-8.2,1.3-16.5,2.6-24.7,4c-1.2,0.2-2.8,0.3-2.8,2.1
		C342.7,216.6,344,216.6,345.5,216.6z M424.7,189c-4.5,0.7-9.8,1.6-15.1,2.4c-21.8,3.6-43.7,7.2-65.5,10.8c-1.4,0.2-3.7,0-3.1,2.4
		c0.5,2.1,2.3,1.4,3.9,1.1c13.8-2.2,27.5-4.4,41.3-6.6c13.1-2.1,26.2-4.3,39.3-6.5c1.3-0.2,3.3-0.1,3.1-2.2
		C428.4,188.5,426.8,188.9,424.7,189z"/>
	<path class="st5" d="M738.1,535c-1.8-6.4-4.6-12.4-6-18.9c-3.3-15.7-3.6-31.3,0-47.8c2,12.7,5.9,24,10.4,36.1
		c3.6-33.3,15.9-62.3,34-89c-8.3,39.5-9,79.6-10.3,119.6C756.9,534.9,747.5,534.9,738.1,535z"/>
	<path class="st6" d="M738.1,535c9.4,0,18.8,0,28.2-0.1c1.4,0.1,2.9,0.2,4.3,0.2c11.6,0,23.3,0,34.9,0c1,0,2.9-0.7,2.9,0.9
		c0,1.5-1.9,1-2.9,1c-14.4,0-28.7,0-43.1,0c-221.1,0-442.2,0-663.2-0.1c-1.6,0-4.5,0.7-4.4-0.7c0.1-2.3,2.9-1.2,4.4-1.2
		c27.2-0.1,54.4-0.1,81.5-0.1c1.6,0,3.1-0.1,4.7-0.1c17.2,0,34.4,0,51.7,0c1.4,0,2.9,0.1,4.3,0.1c164.2,0,328.4,0,492.6,0
		C735.2,535.1,736.6,535,738.1,535z"/>
	<path class="st7" d="M333,190.9c-1.7,0.2-3.3,0.4-5,0.7c-3.4-1.7-6.9-3.3-10.3-5c-0.2-0.6-0.7-1.1-0.2-1.8c3-4.5,2.9-9.6,2.7-14.7
		c-0.1-4-0.4-8.1,0.6-12.1c0.9-3.6,2.7-6.6,6.1-8.1c2.9-1.3,5.2-1.6,7.8,1.8c5.8,7.6,13.1,13.1,23.7,10.8c2.5-0.6,0.9,1.5,1.4,2.2
		c-3.3,6.1-6.7,12-13.1,15.4c-1.5,0.8-2.9,1.8-4.5,2.1C337.2,183,334.7,186.5,333,190.9z"/>
	<path class="st8" d="M639.2,305.9c-34.6,0-69.2,0-103.9,0c-5.4,0-5.9-0.5-5.9-5.7c0-16.2,0-32.4,0-48.6c0-4.7,1.3-6,6-6
		c69.1,0,138.2,0,207.4,0c4.9,0,6.2,1.3,6.2,6.3c0,15.9,0,31.9,0,47.8c0,5.6-0.7,6.3-6.3,6.3C708.2,305.9,673.7,305.9,639.2,305.9z
		 M639,304.3c34.4,0,68.7,0,103.1,0c5.4,0,5.4,0,5.4-5.5c0-15.4,0-30.8,0-46.2c0-4.9-0.6-5.5-5.3-5.5c-68.6,0-137.2,0-205.7,0
		c-4.8,0-5.3,0.6-5.4,5.5c0,15.3,0,30.6,0,45.8c0,5.9,0,5.9,5.7,5.9C570.8,304.3,604.9,304.3,639,304.3z"/>
	<path class="st8" d="M639.1,218c-34.5,0-69,0-103.5,0c-5.8,0-6.1-0.3-6.1-6.3c0-15.9,0-31.9,0-47.8c0-5,1.2-6.3,6.2-6.3
		c69.1,0,138.2,0,207.4,0c4.7,0,6,1.3,6,6.1c0,16.1,0,32.1,0,48.2c0,5.4-0.7,6.1-6.1,6.1C708.3,218,673.7,218,639.1,218z
		 M639.2,216.5c34.5,0,69-0.1,103.5,0.1c3.8,0,5-1.1,4.9-4.9c-0.2-15.7-0.1-31.3-0.1-47c0-4.7-0.6-5.4-5.1-5.4
		c-68.7,0-137.4,0-206.1,0c-4.6,0-5.2,0.7-5.2,5.2c0,15.7,0,31.3,0,47c0,5,0,5,5.1,5C570.4,216.5,604.8,216.5,639.2,216.5z"/>
	<path class="st9" d="M313.9,474.4c-1-1.8,0.3-3.3,0.9-4.7c3.5-8,6.2-16.2,7.7-24.8c2.8,0.7,5.6,1.5,8.3,2.2
		c0.7,5.1,0.2,10.1-0.2,15.2c-0.2,3.6,0.2,6.5,3,9.1c2.8,2.7,3,6.3,1,9.7c-1.8,3.1-4.8,4.2-8.4,3.7c-1.9-0.3-3.3-1.3-4.7-2.6
		C319.1,479.5,316.5,476.9,313.9,474.4z"/>
	<path class="st10" d="M639.4,64.3c18.1,0.1,32.8,14.8,32.8,33c0,18.3-14.8,33-33.2,33c-18.3-0.1-32.8-14.9-32.7-33.4
		C606.3,78.7,621.1,64.3,639.4,64.3z M607.9,97.4c0,17.1,14.1,31.2,31.2,31.2c17.2,0.1,31.5-14.3,31.4-31.4
		C670.4,80,656.1,65.9,638.9,66C621.8,66.1,607.9,80.2,607.9,97.4z"/>
	<path class="st7" d="M385.4,223.3c7.9-1.9,16-3.1,24.1-3.9c-1.3,4.6-5.2,7.5-7.7,11.3c-0.8,1.3-1.7,2.5-2.6,3.8
		c-5.1-2.1-10.1-4.4-14.9-7.2C384.7,226,385,224.7,385.4,223.3z"/>
	<path class="st7" d="M330.9,447c-2.8-0.7-5.6-1.5-8.3-2.2c1.1-4.5,0.8-9.2,2.2-13.6c3.1,1.5,6.3,3,9.4,4.5
		C333,439.4,331.2,443,330.9,447z"/>
	<path class="st9" d="M303.5,447c0.6,5.1,0.2,10.2-0.2,15.2c-0.3,3.6,0.3,6.4,3,9.1c2.8,2.8,3,6.3,1,9.7c-1.9,3.1-4.9,4.2-8.4,3.6
		c-1.9-0.3-3.3-1.4-4.6-2.7c-6.3-6.4-12.7-12.8-18.9-19.3c-4.6-4.9-4.6-10.5,0-15.3c2.9-3,5.9-5.9,8.8-8.9c1.1-1.1,2.2-1.8,3.8-1.8
		c1.6,0.8,2.4,2.3,3.3,3.7c2.2,3.5,5.2,5.6,9.4,5.7C301.6,446.2,302.6,446.3,303.5,447z"/>
	<path class="st7" d="M303.5,447c-0.9-0.6-1.8-0.8-2.9-0.9c-4.2-0.1-7.3-2.3-9.4-5.7c-0.9-1.4-1.7-2.9-3.3-3.7
		c0.2-1.3,0.7-2.5,1.8-3.3c5.3,2.1,10.4,4.6,15.4,7.3C304.2,442.8,303.5,444.8,303.5,447z"/>
	<path class="st11" d="M288.7,339.7c4-0.3,8-0.6,12-1.1c1.8-0.2,2.4,0.4,2,2.1c-0.8,4.1-1.5,8.1-2.2,12.2
		C296.8,348.3,291.7,344.9,288.7,339.7z"/>
	<path class="st7" d="M334.1,231.4c0.6-1.3,1.2-2.6,1.7-3.9c1.8-4.9,4.8-8.4,10.4-8.6c5-0.2,8.3,2.6,10.7,8.6c0,1.8,0,3.6-0.1,5.3
		c-3.3,4.3-6.6,8.6-9.8,13c-1.3,1.8-2.4,2.3-4.4,1.2c-3.2-1.7-6.5-3.3-9.8-4.7c-1.8-0.8-2.3-1.7-1.4-3.6
		C332.5,236.3,333.2,233.8,334.1,231.4z"/>
	<path class="st12" d="M356.9,232.8c0-1.8,0-3.6,0.1-5.3c9.5-1.1,18.9-3.5,28.4-4.2c-0.4,1.3-0.7,2.7-1.1,4
		c-2.1-0.3-2.6,1.5-3.5,2.7c-5.7,7.4-11.4,14.9-17.4,22.8C361.2,245.8,359,239.3,356.9,232.8z"/>
	<path class="st12" d="M318.8,202.9c6.2,0.1,10.8,4.9,10.7,11c-0.2,5.9-4.9,10.5-10.9,10.4c-5.9,0-10.8-4.9-10.8-10.7
		C307.7,207.7,312.6,202.8,318.8,202.9z"/>
	<path class="st11" d="M345.5,216.6c-1.5,0-2.8,0.1-2.8-1.7c0-1.8,1.6-1.9,2.8-2.1c8.2-1.4,16.4-2.7,24.7-4c18.6-3,37.3-6,55.9-9
		c1.6-0.3,3.8-1.2,4.1,1.2c0.3,2.5-2.2,2.2-3.7,2.4c-16.9,2.8-33.9,5.6-50.9,8.3c-9.1,1.5-18.2,3-27.4,4.5
		C347.3,216.4,346.3,216.5,345.5,216.6z"/>
	<path class="st11" d="M424.7,189c2-0.1,3.7-0.4,3.8,1.4c0.2,2.1-1.8,2-3.1,2.2c-13.1,2.2-26.2,4.4-39.3,6.5
		c-13.8,2.2-27.5,4.4-41.3,6.6c-1.6,0.3-3.4,1-3.9-1.1c-0.5-2.4,1.7-2.1,3.1-2.4c21.8-3.6,43.7-7.2,65.5-10.8
		C414.9,190.5,420.2,189.7,424.7,189z"/>
	<path class="st0" d="M639,304.3c-34.1,0-68.2,0-102.3,0c-5.7,0-5.7,0-5.7-5.9c0-15.3,0-30.6,0-45.8c0-4.9,0.6-5.5,5.4-5.5
		c68.6,0,137.2,0,205.7,0c4.7,0,5.3,0.6,5.3,5.5c0,15.4,0,30.8,0,46.2c0,5.5,0,5.5-5.4,5.5C707.7,304.3,673.4,304.3,639,304.3z
		 M560.8,259.6c-9.6,0-16.5,6.8-16.5,16.4c0,8.7,7.4,16.4,16,16.5c9.2,0.1,16.7-7.5,17-16.8C577.6,267.8,568.7,258.2,560.8,259.6z
		 M664,265.1c-20.8,0-41.5,0-62.3,0c-1,0-2.1,0-3.1,0c-1.1,0-2,0.5-2.3,1.7c-0.3,1.3,0.2,2.3,1.2,3.1c1,0.8,2.2,0.7,3.4,0.7
		c41.8,0,83.6,0,125.4,0c2.2,0,4.5-0.2,4.7-2.9c0.2-3.3-2.7-2.6-4.6-2.6C705.5,265.1,684.7,265.1,664,265.1z M663.5,281.5
		c-20.6,0-41.3,0-61.9,0c-0.9,0-1.8,0-2.7,0c-1.5,0-2.6,0.5-2.7,2.2c-0.1,1.5,0.7,2.5,2,3c0.9,0.3,2,0.3,3.1,0.3
		c41.5,0,83,0,124.6,0c2.3,0,4.9,0,5-3c0.1-3.6-3.1-2.5-5-2.5C705,281.5,684.3,281.5,663.5,281.5z"/>
	<path class="st0" d="M639.2,216.5c-34.4,0-68.7,0-103.1,0c-5.1,0-5.1,0-5.1-5c0-15.7,0-31.3,0-47c0-4.6,0.7-5.2,5.2-5.2
		c68.7,0,137.4,0,206.1,0c4.4,0,5.1,0.7,5.1,5.4c0,15.7-0.1,31.3,0.1,47c0,3.8-1.1,4.9-4.9,4.9C708.1,216.4,673.6,216.5,639.2,216.5
		z M544.3,188c-0.4,9.2,7.6,16.4,16.1,16.7c9.1,0.3,16.7-7.5,16.8-16.5c0.1-8.8-7.3-16-15.9-16.5C550.7,171,544.3,180.3,544.3,188z
		 M663.6,193.7c-20.6,0-41.3,0-61.9,0c-1,0-2.1,0-3.1,0c-1.1,0-2,0.5-2.3,1.7c-0.3,1.3,0.2,2.3,1.2,3.1c1,0.8,2.2,0.7,3.4,0.7
		c41.8,0,83.6,0,125.4,0c2.2,0,4.5-0.2,4.7-2.9c0.2-3.3-2.7-2.6-4.6-2.6C705.4,193.7,684.5,193.7,663.6,193.7z M663.5,177.2
		c-20.5,0-41,0-61.5,0c-1,0-2.1,0-3.1,0c-1.5,0-2.6,0.5-2.7,2.2c-0.1,1.5,0.8,2.5,2,3c0.9,0.3,2.1,0.3,3.1,0.3c41.5,0,83,0,124.6,0
		c2.3,0,4.9,0,5-3c0.1-3.3-2.8-2.5-4.7-2.5C705.3,177.2,684.4,177.2,663.5,177.2z"/>
	<path class="st12" d="M607.9,97.4c0-17.1,13.9-31.3,31-31.4c17.2-0.1,31.6,14,31.6,31.2c0.1,17.1-14.3,31.5-31.4,31.4
		C622,128.5,607.9,114.4,607.9,97.4z M655.4,97.3c-0.3-2.1-1.5-3.2-3.7-3.2c-3-0.1-6.7,1.3-8.7-0.6c-2-1.9-0.5-5.7-0.7-8.6
		c-0.1-2.2-1-3.7-3.1-3.7c-2.4-0.1-3.3,1.6-3.3,3.9c-0.1,2.8,1.2,6.5-0.5,8.3c-1.9,2.1-5.7,0.6-8.6,0.7c-2.3,0.1-3.9,1-3.9,3.4
		c0.1,2.2,1.7,3,3.8,3.1c2.9,0.1,6.7-1.3,8.6,0.7c1.8,2,0.5,5.7,0.6,8.7c0.1,2.2,1.1,3.6,3.2,3.6c2.1,0,3.2-1.5,3.2-3.7
		c0-2.3,0.1-4.7,0-7c-0.1-1.7,0.6-2.3,2.3-2.3c2.5,0.1,4.9,0,7.4,0C654.1,100.4,655.1,99.2,655.4,97.3z"/>
	<path class="st5" d="M560.8,259.6c7.9-1.3,16.8,8.2,16.5,16.2c-0.3,9.2-7.8,16.9-17,16.8c-8.6-0.1-16-7.8-16-16.5
		C544.3,266.4,551.2,259.6,560.8,259.6z"/>
	<path class="st13" d="M664,265.1c20.8,0,41.5,0,62.3,0c1.9,0,4.8-0.8,4.6,2.6c-0.1,2.7-2.4,2.9-4.7,2.9c-41.8,0-83.6,0-125.4,0
		c-1.2,0-2.4,0.2-3.4-0.7c-1-0.8-1.5-1.8-1.2-3.1c0.3-1.2,1.2-1.7,2.3-1.7c1,0,2.1,0,3.1,0C622.4,265.1,643.2,265.1,664,265.1z"/>
	<path class="st13" d="M663.5,281.5c20.8,0,41.5,0,62.3,0c2,0,5.1-1.1,5,2.5c0,3-2.7,3-5,3c-41.5,0-83,0-124.6,0c-1,0-2.1,0-3.1-0.3
		c-1.3-0.5-2.2-1.5-2-3c0.1-1.7,1.2-2.1,2.7-2.2c0.9,0,1.8,0,2.7,0C622.2,281.5,642.9,281.5,663.5,281.5z"/>
	<path class="st5" d="M544.3,188c-0.1-7.7,6.3-16.9,17.1-16.3c8.6,0.5,16,7.7,15.9,16.5c-0.1,9-7.7,16.8-16.8,16.5
		C552,204.4,543.9,197.2,544.3,188z"/>
	<path class="st13" d="M663.6,193.7c20.9,0,41.8,0,62.7,0c1.9,0,4.8-0.8,4.6,2.6c-0.1,2.7-2.4,2.9-4.7,2.9c-41.8,0-83.6,0-125.4,0
		c-1.2,0-2.4,0.2-3.4-0.7c-1-0.8-1.5-1.8-1.2-3.1c0.3-1.2,1.2-1.7,2.3-1.7c1,0,2.1,0,3.1,0C622.3,193.7,642.9,193.7,663.6,193.7z"/>
	<path class="st13" d="M663.5,177.2c20.9,0,41.8,0,62.7,0c1.9,0,4.8-0.8,4.7,2.5c-0.1,3-2.7,3-5,3c-41.5,0-83,0-124.6,0
		c-1,0-2.1,0-3.1-0.3c-1.3-0.5-2.2-1.5-2-3c0.1-1.7,1.2-2.2,2.7-2.2c1,0,2.1,0,3.1,0C622.5,177.2,643,177.2,663.5,177.2z"/>
	<path class="st4" d="M655.4,97.3c-0.3,1.9-1.3,3.1-3.3,3.2c-2.5,0-5,0.1-7.4,0c-1.7-0.1-2.3,0.6-2.3,2.3c0.1,2.3,0,4.7,0,7
		c0,2.2-1.1,3.6-3.2,3.7c-2.1,0-3.2-1.4-3.2-3.6c-0.1-3,1.3-6.7-0.6-8.7c-1.9-2-5.7-0.5-8.6-0.7c-2.1-0.1-3.7-0.9-3.8-3.1
		c-0.1-2.4,1.6-3.3,3.9-3.4c2.9-0.2,6.7,1.3,8.6-0.7c1.8-1.9,0.5-5.5,0.5-8.3c0-2.3,0.9-4,3.3-3.9c2.1,0,3,1.6,3.1,3.7
		c0.1,3-1.3,6.7,0.7,8.6c1.9,1.9,5.7,0.5,8.7,0.6C654,94.1,655.1,95.2,655.4,97.3z"/>
</g>
</svg>
