<?xml version="1.0" encoding="utf-8"?>
<!-- Generator: Adobe Illustrator 24.2.1, SVG Export Plug-In . SVG Version: 6.00 Build 0)  -->
<svg version="1.1" id="Ebene_1" xmlns="http://www.w3.org/2000/svg" xmlns:xlink="http://www.w3.org/1999/xlink" x="0px" y="0px"
	 viewBox="0 0 1080 629" style="enable-background:new 0 0 1080 629;" xml:space="preserve">
<style type="text/css">
	.st0{fill:#FEFEFE;}
	.st1{fill:#302F42;}
	.st2{fill:#F1F1F1;}
	.st3{fill:#CBCBCB;}
	.st4{fill:#4A485F;}
	.st5{fill:#6D64FE;}
	.st6{fill:#D4D4D4;}
	.st7{fill:#323143;}
	.st8{fill:#FDB8B8;}
	.st9{fill:#E7E7E7;}
	.st10{fill:#FDFDFD;}
	.st11{fill:#CCCCCC;}
	.st12{fill:#6F66FE;}
</style>
<g>
	<path class="st0" d="M540,628.9c-178.5,0-357,0-535.4,0.1c-3.7,0-4.6-0.8-4.6-4.6C0.1,417.8,0.1,211.2,0,4.6C0,0.8,0.8,0,4.6,0
		c357,0.1,713.9,0.1,1070.9,0c3.7,0,4.6,0.8,4.6,4.6c-0.1,206.6-0.1,413.2,0,619.8c0,3.7-0.8,4.6-4.6,4.6
		C897,628.9,718.5,628.9,540,628.9z M214.2,521.6c-1.7-0.5-3.1-0.9-3.8,1.5c-0.9,3-1.9,6-3.2,8.8c-1,2.2-0.5,3.2,1.7,3.9
		c9.4,3.3,18.8,6.7,28.2,10.1c-1.3,2.1-3.3,1-4.9,1c-36,0.1-72,0-108,0.1c-1.7,0-4-1.2-5.3,2c2.1,0,3.9,0,5.7,0
		c47.4,0,94.8,0,142.2,0c7.3,0,14.5-0.1,21.8-0.2c12.5,0,25.1,0,37.6,0c1.2,0.1,2.3,0.2,3.5,0.2c208.9,0,417.7,0,626.6,0
		c1.3,0,2.8,0.5,3.9-1.8c-66.4,0-132.8,0-199.3,0c5.6-5.1,9.5-10.6,12.1-17c3.2-7.7,4.6-15.9,5.5-24.2c3.5,0,6.9-0.3,10.4,0
		c14.9,1.5,22.3-8.5,27.1-18.7c3.7-7.8,4.2-16.2,5.9-24.4c4.3,0,8.6,0.1,12.9,0c4.7-0.1,9-1.5,12.9-4.3c9-6.4,12.7-15.9,14.9-26.1
		c2.7-13,3.3-26.2,2.2-39.5c-0.7-8.1-1.4-16.2-2.5-24.2c-3.3-23.9-10.1-47.2-13.9-71.1c-2.9-18.2-4.6-36.5-5.4-54.8
		c-0.5-13.2-0.3-26.6,0.5-39.9c1-14.9,2.2-29.7,4.2-44.5c2.7-19.9,6.7-39.5,12.2-58.8c3.1-11.1-3.1-19.8-14.5-19.8
		c-78.7,0-157.3,0-236-0.1c-6.2,0-10.8,2.4-13.8,7.2c-6.8,10.9-10.8,23-12.6,35.8c-4.8,0-9.6,0.3-14.3,0
		c-8.9-0.5-14.5,3.8-18.6,11.4c-5.5,10.2-8.3,21.2-10.8,32.4c-5.8,0.1-11.5,0.2-17.3,0.1c-5,0-9,2.1-11.7,6.2
		c-1.8,2.6-3.3,5.3-4.7,8.2c-7.8,16.3-10.4,33.9-11.7,51.7c-2.8,38.6,1.8,76.7,8.5,114.6c6.5,36.7,11.5,73.6,11.1,111
		c-0.1,8.8-0.2,17.6-1.8,26.3c-2.1-0.2-1.8-1.9-2-3.3c-2.3-14.7-6.1-28.8-14.6-41.3c-16-23.5-46.1-35.4-74.3-24.3
		c-1.4,0.5-3.2,0.7-3.5,2.3c-0.3,1.4,1.3,2.2,2.3,3c16.1,12.9,30.2,27.7,43,43.8c14.4,18.1,27.2,37.5,37.2,58.5
		c0.7,1.4,1.1,3.3,3.3,3.2c-0.5,1.8-1,3.5-1.5,5.3c-2.4-0.7-3-3-3.9-4.9c-5.2-10.8-11.1-21.1-17.5-31.2c-9.5-14.9-20.4-28.8-32-42.2
		c-10.3-11.8-22.1-21.9-33.4-32.4c-1.2-1.2-2.1-1.5-3.8-0.4c-15.1,9.9-23.4,24-25,41.9c-1.9,21.6,8.7,37.3,24.7,49.8
		c20.2,15.8,43.1,25.9,68.1,31.6c1.5,0.3,4-0.3,4.3,2.4c-0.8,0-1.6,0.1-2.5,0.1c-50,0-100.1,0-150.1,0c-1.3,0-2.6-0.2-3.9-0.2
		c-1.4-8.7-6.8-13.5-15.5-13.7c-2.5-0.1-4.9-0.1-7.4-0.2c1-5,1.7-10,1.9-15c2-1.1,4.2-0.7,6.3-1c7.6-0.9,8.6-1.8,7.6-9.4
		c-4.7-36.6-9.7-73.1-14.3-109.7c-0.9-7.4-3.6-14.7-1.9-22.2c5.3-22.9,11-45.8,16.5-68.7c0.5,0.3,1.4,0.5,1.6,1
		c7.8,16.1,20.5,29.7,23.4,48.2c-4.5,8-6.9,16.5-5.5,25.8c2.5,16.4,11.5,27.5,27.1,32.3c15.4,4.8,29.2,0.8,40-11.4
		c10.6-12,12.7-26,6.8-40.9c-7-17.5-27.9-30-51.2-20.7c-3.5-1.2-5.7-3.5-7.1-7c-1.7-4.1-3.7-8.2-5.6-12.2
		c-7.3-15.6-14.6-31.2-21.9-46.8c0.1-5.2,1.7-10.9,0-15.5c-2.6-7.4-5.5-15-10.4-21.4c-4.5-6-9.2-12-17.7-12.1
		c-11.1-0.1-22.1-0.2-33.2,0c-7.6,0.1-13.8,5.2-14.7,12.2c-0.4,3.3-1.7,5.9-3.5,8.5c-2,2.9-3.7,5.9-5.8,8.7
		c-2.7,3.6-2.3,6.7,1.2,9.5c-8,22.7-15.9,45.4-23.9,68c-1.7,4.8-3,9.6-7.2,13.3c-3.1,2.7-2.4,9.4,0.5,12.9c2.9,3.5,6.8,4.6,11.2,3.4
		c4.7-1.3,7.4-5,7.5-9.9c0.1-2.6-0.3-5.2,0.9-7.8c10.3-23.3,20.6-46.7,30.8-70.1c2.7-0.3,4,1.2,5.2,3.5c2.2,4.3,3.6,9.1,7,12.7
		c-1.3,3.8-2.2,7.8-5.4,10.4c-13.4,11.1-18.8,25.6-18.8,42.7c0,11.5,3.3,22.3,6.9,33c1.4,4.1,1.2,7.9-0.3,12
		c-11.6,32-23,64-34.5,96.1c-1,2.8-1.9,5.4,0.4,7.9c0.1,1.8-0.6,3.5-1.2,5.2C219.5,506.1,216,513.6,214.2,521.6z M308.5,199.3
		c6.5-11.5,3.1-21.9-3.8-31.9c7-1.8,9.4-4.4,8.7-9.3c-0.8-5.7-8.1-10.6-14.7-10c-5.7,0.5-8.2,3.8-8,10.9c-9.2-2.3-17.6-0.3-25.3,5.2
		c-1.2-7.5-3.7-10.1-9-9.6c-6.6,0.6-12.9,7.6-12.4,14c0.1,1.9,0.8,3.6,2.1,4.9c3.1,3.2,6.9,1.8,10.7,1.5c-3.7,11.5-3.2,21.9,5,30.9
		c0.4,0.3,0.9,0.5,1.2,0.9c6.4,9.4,15.4,13,26.2,11C299.2,215.9,305.4,209,308.5,199.3z"/>
	<path class="st1" d="M223.3,493.2c-2.3-2.5-1.4-5.2-0.4-7.9c11.5-32,22.9-64.1,34.5-96.1c1.5-4.2,1.7-7.9,0.3-12
		c-3.7-10.7-6.9-21.5-6.9-33c0-17.1,5.4-31.6,18.8-42.7c3.2-2.6,4.2-6.7,5.4-10.4c2-2.3,4.5-3.1,7.5-2.8c3.4,0.4,7,0.3,10.4,0.9
		c10.3,1.7,20.6,3.8,27.3,13.1c-0.2,1.5-0.4,3.1-0.6,4.6c-5.5,22.9-11.2,45.8-16.5,68.7c-1.7,7.5,1,14.8,1.9,22.2
		c4.6,36.6,9.6,73.1,14.3,109.7c1,7.5,0,8.5-7.6,9.4c-2.1,0.2-4.3-0.1-6.3,1c-2.4,0.1-4.9,0.1-7.3,0.5c-3.3,0.5-5.8-0.3-7.3-3.4
		c-4.5-23.6-10.1-46.9-15.6-70.5c-2.1,1.3-2.5,2.9-3.3,4.3c-9,15.7-17.9,31.4-26.7,47.2c-1.6,2.8-3.3,4.9-6.8,4.7
		C233.3,498.1,228.3,495.6,223.3,493.2z"/>
	<path class="st2" d="M483,546.8c-0.4-2.7-2.9-2.1-4.3-2.4c-24.9-5.7-47.9-15.8-68.1-31.6c-16-12.5-26.6-28.2-24.7-49.8
		c1.6-17.9,9.9-32,25-41.9c1.7-1.1,2.6-0.7,3.8,0.4c11.4,10.6,23.1,20.6,33.4,32.4c11.7,13.4,22.5,27.3,32,42.2
		c6.4,10.1,12.3,20.4,17.5,31.2c0.9,1.9,1.5,4.1,3.9,4.9c-1,5.6,0.8,10.3,5.3,14.5C498.3,546.8,490.6,546.8,483,546.8z"/>
	<path class="st3" d="M320.2,302.3c-6.8-9.3-17-11.4-27.3-13.1c-3.4-0.6-6.9-0.5-10.4-0.9c-3-0.3-5.5,0.5-7.5,2.8
		c-3.3-3.7-4.7-8.5-7-12.7c-1.2-2.3-2.5-3.7-5.2-3.5c-5.9-4.7-12.8-7.3-19.8-9.8c-3.5-2.8-3.9-5.8-1.2-9.5c2.1-2.8,3.8-5.8,5.8-8.7
		c1.8-2.6,3.1-5.2,3.5-8.5c0.9-7,7.2-12.1,14.7-12.2c11.1-0.2,22.1-0.1,33.2,0c8.4,0.1,13.1,6.1,17.7,12.1c4.9,6.4,7.7,14,10.4,21.4
		c1.6,4.6,0.1,10.3,0,15.5C325.8,284.4,323.3,293.4,320.2,302.3z"/>
	<path class="st4" d="M483,546.8c7.7,0,15.3,0,23.8,0c-4.5-4.3-6.3-9-5.3-14.5c0.5-1.8,1-3.5,1.5-5.3c5.3-13.5,7.8-27.6,8.7-42
		c1.5-8.7,1.7-17.5,1.8-26.3c0.4-37.4-4.7-74.3-11.1-111c-6.7-37.9-11.3-76-8.5-114.6c1.3-17.8,4-35.3,11.7-51.7
		c1.3-2.8,2.9-5.6,4.7-8.2c2.8-4.1,6.7-6.2,11.7-6.2c5.8,0,11.5-0.1,17.3-0.1c1,0,2.1,0,3.1,0c2,0.1,4,0.2,5.9,0.2
		c70.2,0,140.4,0,210.5,0c11.4,0,18,7.9,15,18.5c-8.3,29.9-13.4,60.3-15.9,91.2c-3.5,44.9-0.9,89.5,8.9,133.5
		c6.8,30.5,13.3,61.1,11.8,92.7c-0.1,1.1-0.2,2.1-0.2,3.2c-1,8.3-2.3,16.5-5.5,24.2c-2.7,6.4-6.5,11.9-12.1,17
		c66.4,0,132.8,0,199.3,0c-1.1,2.2-2.6,1.8-3.9,1.8c-208.9,0-417.7,0-626.6,0c-1.2,0-2.3-0.1-3.5-0.2c0.1-0.7,0.1-1.4,0.2-2.1
		c1.3,0.1,2.6,0.2,3.9,0.2c50,0,100.1,0,150.1,0C481.3,546.9,482.1,546.8,483,546.8z M642,169.3c-39,0-78,0.1-117-0.1
		c-6.9,0-11.8,2.5-14.8,8.6c-1.5,3-3.1,5.9-4.3,9c-6.7,16.6-9,34-9.9,51.7c-1.7,35.8,2.2,71.2,8.4,106.3c5.7,32.5,10.8,65,11.5,98.1
		c0.7,29.1-0.6,57.9-10.5,85.7c-4.2,11.8,0.5,18.3,13,18.3c75.3,0,150.7-0.2,226,0.2c13.5,0.1,21.3-6.1,26.3-17.6
		c4-9.1,5.3-18.8,5.7-28.7c1.1-27-3.3-53.4-9.5-79.6c-18.5-78.6-16.6-156.7,4.2-234.6c3-11.1-1.8-17.3-13.3-17.3
		C719.3,169.3,680.6,169.3,642,169.3z"/>
	<path class="st2" d="M511.8,485c-0.9,14.4-3.4,28.5-8.7,42c-2.2,0.1-2.6-1.8-3.3-3.2c-10-21.1-22.8-40.4-37.2-58.5
		c-12.8-16.1-26.9-30.9-43-43.8c-1-0.8-2.6-1.6-2.3-3c0.3-1.6,2.2-1.8,3.5-2.3c28.2-11.1,58.3,0.8,74.3,24.3
		c8.5,12.5,12.3,26.6,14.6,41.3C510,483.1,509.6,484.7,511.8,485z"/>
	<path class="st5" d="M361.8,341.2c23.3-9.3,44.2,3.2,51.2,20.7c6,14.9,3.8,28.9-6.8,40.9c-10.7,12.2-24.5,16.2-40,11.4
		c-15.6-4.8-24.6-15.9-27.1-32.3c-1.4-9.3,1-17.8,5.5-25.8c1.5,0.1,2.2,1.4,3.3,2.1c4.2,2.6,8.8,2.3,12.4-0.7
		c3.9-3.3,4.6-7.5,3.3-12.2C363.1,343.8,362.4,342.5,361.8,341.2z M373.8,391.8c1.2-0.1,2.3-0.6,3-1.6c5.4-7.1,10.9-14.2,16.2-21.4
		c1.5-2,1.3-4.2-0.7-5.8c-2.1-1.7-4.1-1-5.6,0.9c-2.9,3.6-5.6,7.4-8.5,11.1c-1.6,2.1-3,4.9-5.1,5.9c-2.3,1.1-4-2.3-6.1-3.4
		c-1.6-0.8-3.2-1.1-4.7-0.1c-1.3,0.9-2,2.2-1.7,3.8C360.9,383.7,371.3,391.9,373.8,391.8z"/>
	<path class="st6" d="M778.7,506c0.1-1.1,0.2-2.1,0.2-3.2c6.7-0.1,13.7,1.6,20.1-0.9c10.2-3.8,14.2-13,17-22.6
		c5.4-19.2,3.8-38.9,1.8-58.4c-2.5-23.2-8.7-45.8-13.2-68.7c-4.4-22.1-6.6-44.6-7.1-67.1c-0.5-19.4-0.3-38.9,1.8-58.2
		c1.4-12.7,2.9-25.3,4.9-37.9c2.6-16.2,6.3-32.2,10.6-48c2.2-8.2-2.8-15-11.1-15c-79.4-0.1-158.9,0-238.3,0c-4.3,0-7.4,1.8-9.9,5.4
		c-7.2,10.7-10.4,22.8-12.8,35.3c-1,0-2.1,0-3.1,0c2.5-11.2,5.3-22.2,10.8-32.4c4.1-7.5,9.7-11.9,18.6-11.4c4.8,0.3,9.6,0,14.3,0
		c1,0,2,0,3,0c71.2,0,142.4,0,213.5,0c1.7,0,3.3-0.1,5,0c9,0.7,15.1,9.1,13,18c-2,8-4.1,16.1-6,24.1c-6.3,26.8-9.8,54.1-11,81.6
		c-1,22-0.9,44.2,1.5,66.2c1.9,17.5,4.1,34.9,8,52c7.1,31.2,13.6,62.6,12.1,94.9c0,1,0,2-0.1,3c-1.7,8.2-2.2,16.7-5.9,24.4
		c-4.8,10.2-12.3,20.2-27.1,18.7C785.6,505.7,782.1,506,778.7,506z"/>
	<path class="st7" d="M261.8,205.9c-8.2-9.1-8.7-19.5-5-30.9c-3.7,0.3-7.6,1.7-10.7-1.5c-1.3-1.4-2-3-2.1-4.9
		c-0.4-6.3,5.8-13.4,12.4-14c5.3-0.5,7.8,2.1,9,9.6c7.7-5.5,16.1-7.4,25.3-5.2c-0.1-7.1,2.4-10.4,8-10.9c6.6-0.6,13.9,4.3,14.7,10
		c0.7,4.9-1.7,7.5-8.7,9.3c6.9,9.9,10.3,20.3,3.8,31.9c-0.4-5.3,0.7-11-2.7-15.7c-10.8,7.4-22.6,5.9-34.8,4.6
		c1.7-1.9,4.3-1.4,4.8-3.6c-2.8-0.5-5.6-0.5-7.9-1.7c-4.7-2.3-6.1,0.1-7.1,4c-0.9,3.3-1,6.5-0.9,9.9
		C260.1,199.9,262.1,202.7,261.8,205.9z"/>
	<path class="st8" d="M243.1,265c6.9,2.6,13.9,5.1,19.8,9.8c-10.2,23.4-20.5,46.8-30.8,70.1c-1.2,2.6-0.8,5.2-0.9,7.8
		c-0.1,4.9-2.8,8.6-7.5,9.9c-4.3,1.2-8.3,0.1-11.2-3.4c-2.9-3.6-3.7-10.2-0.5-12.9c4.2-3.7,5.5-8.5,7.2-13.3
		C227.2,310.4,235.1,287.7,243.1,265z"/>
	<path class="st9" d="M822.1,462.9c0-1,0-2,0.1-3c5.8-0.1,11.7,0.7,17.3-0.5c10.1-2.1,15.2-10.1,18.4-19.2
		c5.6-16.5,5.5-33.4,4.2-50.6c-1.6-21.6-5.8-42.6-10.7-63.5c-7.3-31.3-10.4-63-11.1-95c-0.4-16.7,1.1-33.4,2.5-50.1
		c1.1-12.4,2.9-24.6,4.8-36.9c2.4-16.1,6.5-31.8,10.6-47.5c1.7-6.5-2.3-12.2-8.8-13.6c-3.6-0.8-7.2-0.9-10.8-0.9
		c-30.7,0-61.5,0-92.2,0c-44.1,0-88.2,0-132.4,0.1c-5.2,0-11.1-0.4-14.5,4.5c-7.7,10.9-12,23.1-13.3,36.5c-1,0-2,0-3,0
		c1.8-12.8,5.7-24.9,12.6-35.8c3-4.8,7.7-7.2,13.8-7.2c78.7,0.1,157.3,0.1,236,0.1c11.4,0,17.7,8.7,14.5,19.8
		c-5.4,19.3-9.5,38.9-12.2,58.8c-2,14.8-3.2,29.6-4.2,44.5c-0.9,13.3-1,26.6-0.5,39.9c0.7,18.3,2.5,36.6,5.4,54.8
		c3.8,23.9,10.7,47.1,13.9,71.1c1.1,8,1.8,16.1,2.5,24.2c1.1,13.3,0.5,26.5-2.2,39.5c-2.1,10.2-5.9,19.7-14.9,26.1
		c-3.9,2.8-8.2,4.2-12.9,4.3C830.7,463,826.4,462.9,822.1,462.9z"/>
	<path class="st8" d="M361.8,341.2c0.6,1.4,1.3,2.7,1.8,4.1c1.4,4.7,0.6,8.9-3.3,12.2c-3.6,3.1-8.2,3.3-12.4,0.7
		c-1.1-0.7-1.8-2-3.3-2.1c-2.9-18.5-15.6-32.1-23.4-48.2c-0.2-0.5-1.1-0.7-1.6-1c0.2-1.5,0.4-3.1,0.6-4.6c3.2-8.8,5.6-17.9,7-27.2
		c7.3,15.6,14.6,31.2,21.9,46.8c1.9,4.1,3.9,8.1,5.6,12.2C356,337.6,358.3,339.9,361.8,341.2z"/>
	<path class="st8" d="M261.8,205.9c0.3-3.3-1.7-6-1.9-9.2c-0.1-3.3,0-6.6,0.9-9.9c1.1-3.9,2.5-6.3,7.1-4c2.3,1.1,5.1,1.1,7.9,1.7
		c-0.6,2.2-3.2,1.7-4.8,3.6c12.3,1.3,24,2.8,34.8-4.6c3.3,4.7,2.2,10.4,2.7,15.7c-3.1,9.8-9.3,16.7-19.3,18.5
		c-10.7,2-19.8-1.6-26.2-11C262.7,206.4,262.2,206.2,261.8,205.9z"/>
	<path class="st7" d="M326.5,546.7c-0.1,0.7-0.1,1.4-0.2,2.1c-12.5,0-25.1,0-37.6,0c-0.1-0.7-0.1-1.4-0.2-2.1c0-3.6,0-7.3,0-10.9
		c0-1.6,0.1-3,2.2-3c4.3,0,8.6,0,12.9,0c2.5,0.1,4.9,0.1,7.4,0.2C319.7,533.2,325.1,538,326.5,546.7z"/>
	<path class="st7" d="M237.2,545.9c-9.4-3.4-18.8-6.8-28.2-10.1c-2.2-0.8-2.7-1.7-1.7-3.9c1.3-2.9,2.3-5.8,3.2-8.8
		c0.7-2.4,2.1-2,3.8-1.5c4,1.4,7.9,2.9,11.9,4.3c1.2,0.5,2.4,1.1,3.6,1.6c11.1,4.3,13.4,7.7,13.3,19.5
		C240.7,548.5,239.2,545.6,237.2,545.9z"/>
	<path class="st8" d="M226.1,525.9c-4-1.4-7.9-2.9-11.9-4.3c1.9-8,5.3-15.5,7.9-23.2c0.6-1.7,1.2-3.4,1.2-5.2c5,2.5,10,4.9,14.9,7.4
		C234.2,509,230.1,517.5,226.1,525.9z"/>
	<path class="st4" d="M237.2,545.9c2-0.2,3.5,2.6,5.8,1c15.2-0.1,30.4-0.2,45.6-0.2c0.1,0.7,0.1,1.4,0.2,2.1
		c-7.3,0.1-14.5,0.2-21.8,0.2c-47.4,0-94.8,0-142.2,0c-1.8,0-3.6,0-5.7,0c1.3-3.1,3.6-2,5.3-2c36-0.1,72,0,108-0.1
		C233.9,546.9,235.9,548,237.2,545.9z"/>
	<path class="st8" d="M303.6,532.8c-4.3,0-8.6,0-12.9,0c0-6,0.1-12,0.1-18c1.6,3.1,4,3.9,7.3,3.4c2.4-0.4,4.9-0.3,7.3-0.5
		C305.3,522.9,304.6,527.9,303.6,532.8z"/>
	<path class="st10" d="M290.8,514.9c0,6-0.1,12-0.1,18c-2.1,0-2.2,1.4-2.2,3c0.1,3.6,0,7.3,0,10.9c-15.2,0.1-30.4,0.2-45.6,0.2
		c0.1-11.8-2.2-15.2-13.3-19.5c-1.2-0.5-2.4-1-3.6-1.6c4-8.4,8.1-16.9,12.1-25.3c3.5,0.2,5.3-1.9,6.8-4.7
		c8.8-15.8,17.8-31.5,26.7-47.2c0.8-1.4,1.3-3.1,3.3-4.3C280.7,467.9,286.2,491.3,290.8,514.9z"/>
	<path class="st10" d="M642,169.3c38.7,0,77.3,0,116,0c11.5,0,16.3,6.3,13.3,17.3c-20.8,77.8-22.8,156-4.2,234.6
		c6.2,26.1,10.6,52.5,9.5,79.6c-0.4,9.9-1.8,19.6-5.7,28.7c-5,11.6-12.8,17.7-26.3,17.6c-75.3-0.4-150.7-0.2-226-0.2
		c-12.5,0-17.2-6.6-13-18.3c9.9-27.8,11.1-56.6,10.5-85.7c-0.8-33.1-5.8-65.6-11.5-98.1c-6.2-35.2-10-70.5-8.4-106.3
		c0.8-17.7,3.2-35.1,9.9-51.7c1.2-3.1,2.9-6,4.3-9c3.1-6.2,7.9-8.7,14.8-8.6C564,169.4,603,169.3,642,169.3z M592.5,280.1
		c3,0,5.9,0,8.9,0c17.7,0,35.3,0,53,0c4.7,0,7.8-2,9.3-6.6c1.4-4.5-0.4-7.8-3.8-10.4c-2.3-1.7-5.2-2-8-2c-39.3,0-78.6,0-117.9,0
		c-0.8,0-1.7,0-2.5,0.2c-6.6,1.2-9.4,4.7-8.9,11c0.4,5.4,3.6,7.9,10.5,7.9C552.9,280.1,572.7,280.1,592.5,280.1z M593,321.1
		c20.5,0,41,0,61.4,0c4.9,0,8.2-2.2,9.5-7c1.2-4.5-0.8-7.9-4.3-10.2c-2.6-1.7-5.9-1.8-9.1-1.8c-38.3,0-76.6,0-115,0
		c-1.3,0-2.7-0.1-4,0.2c-6.6,1.1-9.5,4.7-9,10.9c0.4,5.5,3.6,7.9,10.4,8C553,321.1,573,321.1,593,321.1z M602.8,363
		c20.5,0,41,0,61.4,0c4.9,0,8.2-2.1,9.5-7c1.3-4.5-0.8-7.9-4.3-10.2c-2.6-1.7-5.9-1.8-9.1-1.8c-38.3,0-76.6,0-115,0
		c-1.5,0-3,0-4.4,0.3c-6.5,1.3-9.2,4.9-8.5,11.2c0.6,5.1,3.8,7.5,10.3,7.5C562.9,363.1,582.9,363.1,602.8,363z M609.9,407
		c3.6,0,7.3,0,10.9,0c16.8,0,33.7,0,50.5,0c4.7,0,7.8-2,9.3-6.6c1.4-4.5-0.5-7.9-3.9-10.4c-2.6-1.9-5.8-2-9-2c-38.5,0-77,0-115.4,0
		c-1.2,0-2.3-0.1-3.5,0.1c-6.8,1-9.9,4.7-9.4,11.1c0.4,5.4,3.6,7.8,10.5,7.8C570,407,589.9,407,609.9,407z M616,450
		c20.5,0,41,0,61.4,0c5,0,8.1-2.4,9.4-7.2c1.1-4.5-1-7.9-4.5-10.1c-2.7-1.6-5.9-1.7-9.1-1.7c-38.2,0-76.3,0-114.5,0
		c-1.8,0-3.6,0.1-5.4,0.5c-6.2,1.5-8.6,5.1-7.8,11.2c0.6,4.9,3.8,7.2,10.1,7.3C575.7,450,595.8,450,616,450z M627.3,206.7
		c14.4,0,28.7,0.1,43.1,0c6.3-0.1,10.6-4,10.8-9.3c0.2-5.4-4.1-9.9-10.3-9.9c-29.1-0.1-58.1-0.1-87.2,0c-4.5,0-8,2.2-9.5,6.7
		c-2.2,6.6,2.5,12.5,10.4,12.6C598.9,206.8,613.1,206.7,627.3,206.7z M732.9,398c0-7.5-5.2-13-12.4-13c-6.8,0-12.1,5.7-12.6,12.6
		c-0.6,8.2,6.2,13,12.3,13.3C727.1,411.3,732.9,405.2,732.9,398z M713.9,440.3c-1,9,7,13.4,12.5,13.5c6.6,0.1,12.3-5.6,12.4-12.2
		c0.2-7.9-4.9-13.6-12.3-13.7C719.8,427.9,714,433.5,713.9,440.3z M705.7,285c7-0.1,12.9-6.2,12.8-13.1c-0.1-7-6.1-12.9-13.1-12.9
		c-7,0.1-12.9,6.2-12.9,13.1C692.7,279.1,698.8,285.1,705.7,285z M705.8,297c-7-0.1-13,5.7-13.2,12.7c-0.2,6.9,5.8,13.1,12.7,13.2
		c7,0.1,13-5.7,13.2-12.8C718.7,303.3,712.8,297.1,705.8,297z M712.5,367c7,0,13-5.9,13-12.9c0-7-5.9-13-12.9-13.1
		c-7,0-13,5.9-13,12.9C699.5,360.9,705.5,366.9,712.5,367z"/>
	<path class="st0" d="M542.6,166.8c2.4-12.4,5.5-24.6,12.8-35.3c2.5-3.6,5.6-5.4,9.9-5.4c79.4,0,158.9,0,238.3,0
		c8.3,0,13.3,6.8,11.1,15c-4.3,15.8-8,31.8-10.6,48c-2,12.6-3.5,25.2-4.9,37.9c-2.1,19.4-2.3,38.8-1.8,58.2
		c0.6,22.5,2.8,45,7.1,67.1c4.5,22.9,10.8,45.5,13.2,68.7c2.1,19.4,3.7,39.1-1.8,58.4c-2.7,9.6-6.8,18.7-17,22.6
		c-6.5,2.4-13.4,0.8-20.1,0.9c1.5-31.6-5-62.2-11.8-92.7c-9.8-44-12.5-88.5-8.9-133.5c2.4-30.9,7.5-61.3,15.9-91.2
		c2.9-10.5-3.7-18.5-15-18.5c-70.2,0-140.4,0-210.5,0C546.5,166.9,544.5,166.8,542.6,166.8z"/>
	<path class="st10" d="M373.8,391.8c-2.4,0.1-12.9-8.2-13.3-10.5c-0.3-1.7,0.4-3,1.7-3.8c1.5-1,3.1-0.8,4.7,0.1
		c2.1,1.1,3.7,4.4,6.1,3.4c2.2-1,3.5-3.8,5.1-5.9c2.9-3.7,5.6-7.4,8.5-11.1c1.5-1.9,3.5-2.6,5.6-0.9c2,1.6,2.2,3.8,0.7,5.8
		c-5.3,7.2-10.8,14.3-16.2,21.4C376,391.2,375,391.8,373.8,391.8z"/>
	<path class="st0" d="M586.1,123.1c1.3-13.3,5.6-25.6,13.3-36.5c3.4-4.8,9.4-4.5,14.5-4.5c44.1-0.1,88.2-0.1,132.4-0.1
		c30.7,0,61.5,0,92.2,0c3.6,0,7.2,0.1,10.8,0.9c6.5,1.4,10.5,7.1,8.8,13.6c-4.1,15.7-8.2,31.4-10.6,47.5
		c-1.8,12.3-3.7,24.5-4.8,36.9c-1.5,16.7-2.9,33.4-2.5,50.1c0.8,32,3.8,63.7,11.1,95c4.9,20.9,9,42,10.7,63.5
		c1.3,17.2,1.4,34.2-4.2,50.6c-3.1,9.1-8.2,17.1-18.4,19.2c-5.6,1.1-11.5,0.4-17.3,0.5c1.5-32.4-5-63.7-12.1-94.9
		c-3.9-17.1-6.1-34.5-8-52c-2.4-22.1-2.5-44.2-1.5-66.2c1.2-27.5,4.7-54.8,11-81.6c1.9-8.1,4-16.1,6-24.1c2.2-8.9-3.9-17.3-13-18
		c-1.6-0.1-3.3,0-5,0C728.4,123.1,657.3,123.1,586.1,123.1z"/>
	<path class="st11" d="M592.5,280.1c-19.8,0-39.6,0-59.5,0c-6.9,0-10.1-2.4-10.5-7.9c-0.5-6.2,2.4-9.7,8.9-11
		c0.8-0.1,1.6-0.2,2.5-0.2c39.3,0,78.6,0,117.9,0c2.8,0,5.7,0.3,8,2c3.4,2.5,5.3,5.9,3.8,10.4c-1.5,4.6-4.6,6.6-9.3,6.6
		c-17.7,0-35.3,0-53,0C598.5,280.1,595.5,280.1,592.5,280.1z"/>
	<path class="st11" d="M593,321.1c-20,0-40,0-60,0c-6.8,0-10-2.5-10.4-8c-0.5-6.2,2.4-9.7,9-10.9c1.3-0.2,2.6-0.2,4-0.2
		c38.3,0,76.6,0,115,0c3.2,0,6.4,0.1,9.1,1.8c3.5,2.3,5.6,5.7,4.3,10.2c-1.3,4.8-4.6,7-9.5,7C633.9,321,613.4,321.1,593,321.1z"/>
	<path class="st11" d="M602.8,363.1c-20,0-40,0-60,0c-6.6,0-9.8-2.4-10.3-7.5c-0.7-6.3,2-9.9,8.5-11.2c1.4-0.3,3-0.3,4.4-0.3
		c38.3,0,76.6,0,115,0c3.2,0,6.4,0.1,9.1,1.8c3.5,2.3,5.5,5.7,4.3,10.2c-1.4,4.8-4.6,7-9.5,7C643.8,363,623.3,363,602.8,363.1z"/>
	<path class="st11" d="M609.9,407c-20,0-40,0-60,0c-6.9,0-10.1-2.4-10.5-7.8c-0.5-6.4,2.6-10.1,9.4-11.1c1.1-0.2,2.3-0.1,3.5-0.1
		c38.5,0,77,0,115.4,0c3.2,0,6.4,0.1,9,2c3.4,2.5,5.3,5.8,3.9,10.4c-1.4,4.6-4.6,6.6-9.3,6.6c-16.8,0-33.7,0-50.5,0
		C617.2,407,613.6,407,609.9,407z"/>
	<path class="st11" d="M616,450c-20.2,0-40.3,0-60.5,0c-6.2,0-9.4-2.3-10.1-7.3c-0.8-6.2,1.6-9.7,7.8-11.2c1.7-0.4,3.6-0.5,5.4-0.5
		c38.2,0,76.3,0,114.5,0c3.2,0,6.4,0.1,9.1,1.7c3.6,2.2,5.7,5.6,4.5,10.1c-1.2,4.8-4.4,7.2-9.4,7.2C656.9,450,636.4,450,616,450z"/>
	<path class="st12" d="M627.3,206.7c-14.2,0-28.4,0.1-42.6,0c-7.9-0.1-12.7-6-10.4-12.6c1.5-4.5,5-6.6,9.5-6.7
		c29.1-0.1,58.1-0.1,87.2,0c6.1,0,10.4,4.5,10.3,9.9c-0.2,5.4-4.5,9.3-10.8,9.3C656,206.8,641.6,206.7,627.3,206.7z"/>
	<path class="st11" d="M732.9,398c0,7.2-5.8,13.3-12.7,12.8c-6.1-0.4-12.9-5.2-12.3-13.3c0.5-6.9,5.8-12.6,12.6-12.6
		C727.7,385,733,390.5,732.9,398z"/>
	<path class="st11" d="M713.9,440.3c0.1-6.8,5.9-12.5,12.7-12.4c7.3,0.1,12.4,5.8,12.3,13.7c-0.1,6.6-5.8,12.3-12.4,12.2
		C721,453.8,712.9,449.3,713.9,440.3z"/>
	<path class="st12" d="M705.7,285c-7,0.1-13-5.9-13.1-12.9c-0.1-6.9,5.9-13,12.9-13.1c7-0.1,13,5.9,13.1,12.9
		C718.7,278.8,712.7,284.9,705.7,285z M711.2,269c-0.3-0.7-0.4-1.3-0.7-1.5c-1.1-0.7-1.7,0.4-2.4,1c-1.9,1.7-2.4,5.6-6.7,3.8
		c-1.3-0.6-1.4,1.5-0.4,2.3c1.2,0.9,2.5,3.2,4,1.8C707.3,274.3,709.1,271.5,711.2,269z"/>
	<path class="st12" d="M705.8,297c7,0.1,12.9,6.3,12.7,13.2c-0.2,7-6.2,12.9-13.2,12.8c-6.9-0.1-12.9-6.3-12.7-13.2
		C692.8,302.7,698.9,296.9,705.8,297z M702.9,310.7c-1.3-0.5-2.9-1.3-2.5,1.1c0.2,1.5,1.9,2.2,3.2,2.8c1.4,0.7,2.1-0.5,2.8-1.4
		c1.2-1.5,2.4-3.1,3.6-4.7c0.6-0.9,1.8-1.9,0.5-3c-1.3-1.1-1.9,0.6-2.7,1.2C706.1,308.1,705.8,311.1,702.9,310.7z"/>
	<path class="st12" d="M712.5,367c-6.9,0-13-6.1-12.9-13.1c0.1-7,6.1-13,13-12.9c7,0,12.9,6.1,12.9,13.1
		C725.5,361,719.4,367,712.5,367z M709.3,354.4c-1.1-0.5-2.2-0.4-2.1,0.9c0,1.5,1.6,1.9,2.6,2.8c1,0.9,2.1,0.9,2.9-0.2
		c1.5-1.9,3-3.9,4.5-5.8c0.6-0.8,1.2-1.8,0.1-2.6c-1.1-0.8-1.6,0.4-2.4,1C713,351.8,712.9,355.7,709.3,354.4z"/>
	<path class="st2" d="M711.2,269c-2,2.5-3.8,5.3-6.2,7.4c-1.5,1.3-2.9-0.9-4-1.8c-1-0.8-0.9-2.9,0.4-2.3c4.3,1.8,4.7-2.1,6.7-3.8
		c0.7-0.6,1.3-1.7,2.4-1C710.7,267.7,710.8,268.3,711.2,269z"/>
	<path class="st2" d="M702.9,310.7c2.9,0.4,3.2-2.6,4.9-3.9c0.8-0.7,1.4-2.3,2.7-1.2c1.3,1,0.1,2.1-0.5,3c-1.2,1.6-2.3,3.2-3.6,4.7
		c-0.7,0.9-1.4,2.1-2.8,1.4c-1.3-0.7-3-1.4-3.2-2.8C700,309.4,701.6,310.2,702.9,310.7z"/>
	<path class="st2" d="M709.3,354.4c3.6,1.3,3.7-2.7,5.6-3.9c0.8-0.5,1.3-1.7,2.4-1c1,0.7,0.5,1.7-0.1,2.6c-1.5,1.9-3,3.9-4.5,5.8
		c-0.9,1.1-1.9,1.2-2.9,0.2c-1-0.8-2.5-1.3-2.6-2.8C707.1,354,708.2,353.9,709.3,354.4z"/>
</g>
</svg>
