<?xml version="1.0" encoding="utf-8"?>
<!-- Generator: Adobe Illustrator 24.2.1, SVG Export Plug-In . SVG Version: 6.00 Build 0)  -->
<svg version="1.1" id="Layer_1" xmlns="http://www.w3.org/2000/svg" xmlns:xlink="http://www.w3.org/1999/xlink" x="0px" y="0px"
	 viewBox="0 0 512 673" style="enable-background:new 0 0 512 673;" xml:space="preserve">
<style type="text/css">
	.st0{fill:none;}
	.st1{fill:#215093;}
	.st2{font-family:'ShreeDev0714-Bold';}
	.st3{font-size:60px;}
</style>
<rect y="525.9" class="st0" width="447" height="146"/>
<text transform="matrix(1 0 0 1 152.8931 571.1896)"><tspan x="0" y="0" class="st1 st2 st3">mealplaner</tspan><tspan x="194" y="72" class="st1 st2 st3">app</tspan></text>
<g>
	<g>
		<g id="outline_8_">
			<path class="st1" d="M439.3,394.1h-5.8c-2.9-78.1-62.1-142.4-139.6-151.8c6.9-10.4,4.1-24.5-6.3-31.4s-24.5-4.1-31.4,6.3
				c-5,7.6-5,17.5,0,25.1c-77.5,9.4-136.8,73.8-139.6,151.8h-5.8c-3.1,0-5.7,2.5-5.7,5.7v22.7c0,3.1,2.5,5.7,5.7,5.7h51v11.3H139
				c-1.5,0-2.9,0.6-4,1.7l-28.3,28.3c-1.1,1.1-1.7,2.5-1.7,4v68c0,3.1,2.5,5.7,5.7,5.7c1.4,0,2.7-0.5,3.7-1.4l38.1-32.6h9.2v5.7
				c0,3.1,2.5,5.7,5.7,5.7H190c3.1,0,5.7-2.5,5.7-5.7v-16.4l107.1,10.8c0.2,0,0.4,0,0.6,0c0.9,0,1.7-0.2,2.5-0.6l101-50.5
				c9-4.6,13.1-15.3,9.4-24.7c-1.4-3.8-3.9-7-7.3-9.3h30.4c3.1,0,5.7-2.5,5.7-5.7v-22.7C445,396.7,442.5,394.1,439.3,394.1z
				 M161.7,501.8h-11.3c-1.4,0-2.7,0.5-3.7,1.4l-30.3,26v-53.3l25-25h20.3V501.8z M275,218.5c6.3,0,11.3,5.1,11.3,11.3
				c0,6.3-5.1,11.3-11.3,11.3c-6.3,0-11.3-5.1-11.3-11.3C263.7,223.5,268.7,218.5,275,218.5z M276,252.5
				c78.7,0.6,143.1,63,146.2,141.6H161.9C165.8,300.5,265.4,256.9,276,252.5z M245.2,255.5c-35.3,20.8-91.8,65.3-94.7,138.6h-22.8
				C130.5,326.5,178.9,269.3,245.2,255.5L245.2,255.5z M184.3,513.1H173v-85h11.3V513.1z M401.8,451.9l-99.5,49.8L195.7,491v-40.2
				h119c3.1,0,5.7,2.5,5.7,5.7c0,3.1-2.5,5.7-5.7,5.7H258v11.3h56.7c7.8,0,14.5-5.3,16.4-12.8l59.2-21.5c0.2-0.1,0.4-0.2,0.6-0.2
				c3.2-2,7.1-2.7,10.8-1.8c2,0.9,3.4,2.5,4.1,4.5C407.3,445.5,405.6,450,401.8,451.9z M195.7,439.5v-11.3h191.5
				c-0.4,0.2-0.7,0.3-1,0.4L329.9,449c-2.8-5.8-8.7-9.5-15.2-9.6H195.7z M433.7,416.8H116.3v-11.3h317.3V416.8z"/>
			<path class="st1" d="M383.4,340.2l10-5.4c-23.2-43.8-68.8-71.1-118.3-71v11.3C320.4,275,362.1,300,383.4,340.2z"/>
			
				<rect x="391.2" y="348.1" transform="matrix(0.8944 -0.4472 0.4472 0.8944 -116.6215 214.889)" class="st1" width="11.3" height="12.7"/>
		</g>
	</g>
</g>
</svg>
