<?xml version="1.0" encoding="utf-8"?>
<!-- Generator: Adobe Illustrator 24.2.1, SVG Export Plug-In . SVG Version: 6.00 Build 0)  -->
<svg version="1.1" xmlns="http://www.w3.org/2000/svg" xmlns:xlink="http://www.w3.org/1999/xlink" x="0px" y="0px"
	 viewBox="0 0 510.9 502.2" style="enable-background:new 0 0 510.9 502.2;" xml:space="preserve">
<style type="text/css">
	.st0{fill:#FFFFFF;}
	.st1{fill:#09398E;}
</style>
<g id="Layer_1">
	<circle class="st0" cx="252.9" cy="247.9" r="245.2"/>
</g>
<g id="Ebene_2">
	<g>
		<path class="st1" d="M446.3,244.8h-6.5c-3.3-88-69.9-160.4-157.2-171c7.8-11.7,4.6-27.6-7.1-35.4c-11.7-7.8-27.6-4.6-35.4,7.1
			c-5.6,8.6-5.6,19.7,0,28.3C152.8,84.4,86,156.9,82.8,244.8h-6.5c-3.5,0-6.4,2.8-6.4,6.4v25.6c0,3.5,2.8,6.4,6.4,6.4h57.4v12.7
			h-25.7c-1.7,0-3.3,0.7-4.5,1.9l-72.9,40.9c-0.4,0.4-2.6,1.6-5.1,3c0.5,0.6,0.8,1.3,1,2.1c11.6,27.3,28,52.2,48.2,73.5
			c0.6,0,1.1-0.1,1.5-0.1c1.6,0,3-0.6,4.2-1.6l42.9-36.7h10.4v6.4c0,3.5,2.8,6.4,6.4,6.4h25.5c3.5,0,6.4-2.8,6.4-6.4v-18.5
			L292.5,379h0.7c1,0,1.9-0.2,2.8-0.7l113.7-56.9c10.1-5.2,14.8-17.2,10.6-27.8c-1.6-4.3-4.4-7.9-8.2-10.5h34.2
			c3.5,0,6.4-2.8,6.4-6.4v-25.6C452.7,247.7,449.9,244.8,446.3,244.8z M133.6,366.1h-12.7c-1.6,0-3,0.6-4.2,1.6l-43.1,32l-33-48
			l70.1-42.9h22.9V366.1z M261.2,47c7.1,0,12.7,5.7,12.7,12.7c0,7.1-5.7,12.7-12.7,12.7c-7.1,0-12.7-5.7-12.7-12.7
			C248.5,52.7,254.1,47,261.2,47z M262.4,85.3C351,86,423.5,156.3,427,244.8H133.9C138.2,139.4,250.4,90.3,262.4,85.3z M227.7,88.7
			c-39.8,23.4-103.4,73.5-106.7,156.1H95.3C98.5,168.7,153,104.2,227.7,88.7z M159.1,378.8h-12.7v-95.7h12.7V378.8z M404,309.9
			L292,366l-120.1-12.1v-45.3h134c3.5,0,6.4,2.8,6.4,6.4c0,3.5-2.8,6.4-6.4,6.4h-63.9v12.7h63.9c8.8,0,16.3-6,18.5-14.4l66.7-24.2
			c0.2-0.1,0.5-0.2,0.7-0.2c3.6-2.3,8-3,12.2-2c2.3,1,3.8,2.8,4.6,5.1C410.2,302.7,408.3,307.7,404,309.9z M171.9,295.8v-12.6h215.7
			c-0.5,0.2-0.8,0.3-1.1,0.5l-63.4,23c-3.2-6.5-9.8-10.7-17.1-10.8H171.9z M439.8,270.3H82.5v-12.7h357.3V270.3z"/>
	</g>
</g>
</svg>
