<?xml version="1.0" encoding="utf-8"?>
<!-- Generator: Adobe Illustrator 24.2.1, SVG Export Plug-In . SVG Version: 6.00 Build 0)  -->
<svg version="1.1" id="Capa_1" xmlns="http://www.w3.org/2000/svg" xmlns:xlink="http://www.w3.org/1999/xlink" x="0px" y="0px"
	 viewBox="0 0 512 512" style="enable-background:new 0 0 512 512;" xml:space="preserve">
<style type="text/css">
	.st0{fill:#FFFFFF;}
	.st1{fill:#A71B1D;}
	.st2{fill:#003E6B;}
</style>
<path class="st0" d="M485.9,487.4c-8.7,0-10.7,14-28.6,14.5c-204.7,6.2-284.4,3.7-404.2-0.7c-6.3-0.2-14.4-6.7-24.8-12.6
	c-0.2-12.5-8.1-11.7-8.3-24.2c-2.1-111-4.2-222.1-6.3-333.1c161.6,0,323.2,0,484.8,0c0,107.4,0,214.8,0,322.1
	C498.4,469.4,485.9,471.5,485.9,487.4z"/>
<path class="st1" d="M493.9,149.2H62.5L21.2,150c0.2-23.9-3.6-50.5,6.5-72.3c16.4-35,23.5-27,44.2-35c126,0,242.5-0.1,368.5-0.1
	L470,53.3l23.9,43V149.2z"/>
<g>
	<g>
		<path class="st1" d="M437.3,42.7H416c-5.9,0-10.7,4.8-10.7,10.7S410.1,64,416,64h21.3c29.4,0,53.3,23.9,53.3,53.3v320
			c0,29.4-23.9,53.3-53.3,53.3H74.7c-29.4,0-53.3-23.9-53.3-53.3v-320C21.3,87.9,45.2,64,74.7,64H96c5.9,0,10.7-4.8,10.7-10.7
			S101.9,42.7,96,42.7H74.7C33.5,42.7,0,76.2,0,117.3v320C0,478.5,33.5,512,74.7,512h362.7c41.2,0,74.7-33.5,74.7-74.7v-320
			C512,76.2,478.5,42.7,437.3,42.7z"/>
	</g>
</g>
<g>
	<g>
		<path class="st0" d="M138.7,2.1c-5.9,0-10.7,4.8-10.7,10.7v85.3c0,5.9,4.8,10.7,10.7,10.7s10.7-4.8,10.7-10.7V12.8
			C149.3,6.9,144.6,2.1,138.7,2.1z"/>
	</g>
</g>
<g>
	<g>
		<path class="st0" d="M373.3,2.1c-5.9,0-10.7,4.8-10.7,10.7v85.3c0,5.9,4.8,10.7,10.7,10.7S384,104,384,98.1V12.8
			C384,6.9,379.2,2.1,373.3,2.1z"/>
	</g>
</g>
<g>
	<path class="st2" d="M235,395.1v-125c0-6.5-2.5-9.8-7.5-9.8H200v134.8h-42.8V260.4h-27c-5,0-7.5,3.3-7.5,9.8v125H80V248.6
		c0-30,11.4-45,34.2-45h129c22.7,0,34,15.1,34,45.4v146.2H235z"/>
	<path class="st2" d="M342.2,395.1v24.3L299,473.8V203.6h98c23.3,0,35,14.6,35,43.7v102.8c0,30-11.4,45-34.2,45H342.2z M388.7,270.5
		c0-7-2.5-10.4-7.5-10.4h-39v78.3h39c5,0,7.5-3.3,7.5-9.8V270.5z"/>
</g>
</svg>
