<?xml version="1.0" encoding="utf-8"?>
<!-- Generator: Adobe Illustrator 24.2.1, SVG Export Plug-In . SVG Version: 6.00 Build 0)  -->
<svg version="1.1" id="Ebene_1" xmlns="http://www.w3.org/2000/svg" xmlns:xlink="http://www.w3.org/1999/xlink" x="0px" y="0px"
	 viewBox="0 0 968 915" style="enable-background:new 0 0 968 915;" xml:space="preserve">
<style type="text/css">
	.st0{fill:#FEFEFE;}
	.st1{fill:#6C63FE;}
	.st2{fill:#38364D;}
	.st3{fill:#E5E5E5;}
	.st4{fill:#6B62FC;}
	.st5{fill:#403E57;}
	.st6{fill:#FDB8B8;}
	.st7{fill:#323144;}
	.st8{fill:#6D64FD;}
	.st9{fill:#45426C;}
	.st10{fill:#FCB7B7;}
	.st11{fill:#F4F3F8;}
	.st12{fill:#CBCBCB;}
</style>
<g>
	<path class="st0" d="M484,0.1c159.8,0,319.6,0,479.4-0.1c3.7,0,4.6,0.8,4.6,4.6c-0.1,301.9-0.1,603.9,0,905.8
		c0,3.7-0.8,4.6-4.6,4.6c-319.6-0.1-639.2-0.1-958.8,0c-3.7,0-4.6-0.8-4.6-4.6C0.1,608.5,0.1,306.5,0,4.6C0,0.8,0.8,0,4.6,0
		C164.4,0.1,324.2,0.1,484,0.1z M569,289.5c0.8,15.1,7.5,25.2,20.4,28.5c5.4,1.4,6.7,4.3,6.7,8.9c-2,0.4-3.9,0.7-5.9,1.1
		c-17.2,3.5-29.8,11.9-34.3,30.2c-2.3,9.6-5.9,19-8.9,28.4c-1.9-0.6-3.8-1.2-5.7-1.8c-26.8-9.1-54.3-11.9-82.4-8.1
		c-16.9,2.3-33,7.2-48.7,13.6c-1.5-1.1-1.2-2.6-1.2-4.1c0-22.3,0-44.7-0.1-67c0-2.7,0.8-4.2,3.5-5.2c12.6-4.6,22.2-13.5,30.3-23.7
		c18.7-23.6,26-51.6,28.2-81c1.1-14.4-0.1-28.9-2.9-43.1c-5.4-27-15.6-51.5-36.6-70.3c-17.9-16-41.6-21.1-63.7-10
		c-17,8.5-28.9,22.3-37.4,38.9c-14.5,28.4-19.3,58.6-16.4,90.3c2.1,22.8,7.9,44.4,19.7,64.1c9.2,15.3,21.1,27.8,37.9,34.7
		c3.6,1.5,4.6,3.1,4.6,6.8c-0.1,29.8,0,59.6,0,89.5c-10.3,8.3-20.1,17.2-28.9,27c-0.6-0.5-1.4-1-1.8-1.6
		c-13.7-20.8-27.2-41.7-41-62.5c-1.7-2.6-0.8-4.3,0.6-6.3c12.2-17.8,13.9-38,11.8-58.4c-2.2-22-9.9-42.6-21.3-61.6
		c-14.6-24.4-33.2-44.7-57.8-59.3c-5-2.9-10.1-6.1-16.2-7.2c0,2,0.9,3.1,1.6,4.2c6.5,9.8,13,19.7,19.4,29.6
		c13.3,20.3,26.6,40.5,39.8,60.9c1.5,2.3,3.3,4.6,2.4,7.8c-0.9,3.4-2.7,5.6-6.3,6.3c-4.2,0.8-7.5-0.5-9.9-4.1
		c-5.2-7.9-10.3-15.9-15.5-23.8c-18.2-27.8-36.4-55.6-54.6-83.4c-1.2-1.9-2.3-3.5-4.9-3.7c-8.1-0.5-15.9,0.5-23.5,3.2
		c-2.3,0.8-3.1,1.7-1.4,4.2c8.1,12.2,15.9,24.5,24,36.7c17.8,27.1,35.6,54.1,53.4,81.2c3.4,5.1,2.6,10.2-1.9,13.1
		c-4.3,2.7-8.7,1.4-12.2-3.8c-6-9-11.8-18.1-17.8-27.1c-18.4-27.9-36.7-55.8-55.1-83.7c-7.3-11.1-7.3-11.1-15.2,0.1
		c-7.9,11.1-7.9,14.1-0.4,25.6c21.9,33.3,43.8,66.6,65.7,99.9c3.4,5.2,2.7,9.7-2.1,13c-4,2.8-8.6,1.5-11.9-3.4
		c-3.6-5.4-7.1-10.9-10.6-16.3c-13.1-20-26.2-40-39.3-60c-4-6.1-8.2-12.1-13-19.4c-0.3,10.4-0.3,19.1,1.4,27.8
		c3.9,19.9,11.3,38.5,21.9,55.8c16,26,36.7,47.2,64.5,60.4c16.4,7.8,33.7,12.3,52.1,7.7c2.7-0.7,4,0.9,5.2,2.8
		c3.6,5.6,7.2,11.2,10.8,16.7c12.7,19.5,25.9,38.6,38,58.5c-1.5,3.3-3,6.6-4.5,9.9c-0.5,0-1.1,0.1-1.6,0.1
		c-11.7-3.1-23.5-3.8-35.6-2.4c-44.2,5.1-79.9,43.6-81.3,88.1c-1.3,41.7,22.6,77.2,62.2,91.7c2.8,1,3.8,2.3,3.8,5.3
		c-0.1,12.3,0,24.6,0.1,37c0,0.7,0,1.4,0,2.1c0,8.3,0,16.6,0,24.9c0,0.7,0,1.4,0,2.1c0,8.3,0,16.6,0,24.9c0,0.7,0,1.4,0,2.1
		c-0.1,14.7-0.2,29.4-0.3,44c-8.9,0-17.9,0.7-26.7,1.3c-8,0.6-16.2-0.4-24.1,1.7c-0.3-2-0.7-3.9-0.9-5.9
		c-2.2-24.9-4.4-49.7-6.4-74.6c-0.3-4.3-1.8-7.3-5.9-8.9c-1.3-3.4-0.8-7-0.5-10.4c0.4-4.7-1.7-7.3-5.8-8.7
		c-10.3-3.5-20.5-3.6-30.8,0.1c-4.1,1.5-6.1,4.1-5.7,8.7c0.3,3.1,0,6.3-0.1,9.5c-3.5,1.3-6.8,2.5-7.2,7.1
		c-1.1,15.4-2.3,30.8-3.4,46.2c-1,14.2-2,28.5-3,42.7c-8.3,1.2-16.8,2.1-24.8,5c-1.5,0.5-3,1.2-3.2,2.8c-0.3,1.9,1.6,2.3,2.9,2.9
		c2.1,0.9,4.3,1.8,6.6,2.3c12.3,2.6,24.8,3.8,37.3,5.3c19.1,2.2,38.3,3.2,57.4,4.6c12.7,0.9,25.5,1.5,38.2,2
		c18.2,0.8,36.5,1,54.7,2.1c12.3,0.7,24.6,0.1,36.9,0.8c20.7,1.2,41.6,0.8,62.3,1c56.4,0.6,112.9,0.8,169.3-0.7
		c11.3-0.3,22.6-0.3,33.9-0.7c23.2-0.8,46.5-1.2,69.7-2.2c14.3-0.6,28.5-1.3,42.7-2c19.9-1,39.7-2.3,59.5-4.1
		c15.7-1.4,31.3-3,46.7-6.3c3.3-0.7,8.4-1.4,8.5-4.7c0.1-3.5-5.1-4-8.3-4.9c-5.3-1.4-10.7-2.2-16-3.3c-2.5-29.7-5-59.3-7.6-89
		c-0.3-3.5-2.8-5.1-5.6-6.4c-1.3-3.4-0.8-7-0.5-10.4c0.4-4.7-1.7-7.3-5.8-8.7c-10.3-3.5-20.5-3.6-30.8,0.1c-4.1,1.5-6.1,4.1-5.7,8.7
		c0.3,3.1,0,6.3-0.1,9.5c-3.3,1.2-6.8,2.4-7.1,6.7c-1,13.4-1.8,26.9-2.9,40.3c-1.1,14.4-2.4,28.8-3.6,43.2
		c-12-0.7-24.1-1.4-36.1-2.1c-0.1-15-0.2-30-0.3-45c0-0.7,0-1.4,0-2.1c0-8.3,0-16.6,0-24.9c0-0.7,0-1.4,0-2.1c0-8.3,0-16.6,0-24.9
		c0-0.7,0-1.4,0-2.1c0-14.2,0.1-28.3,0.1-42.5c0-2.5,0.4-4.1,3-5.5c34.7-19.3,52.5-54,48.2-93.4c-4.6-42-40.3-77.2-82.1-80.7
		c3.7-5,3.7-10.4,1.9-16c-1.6-5-3.9-9.7-5.6-14.7c-1.3-3.8-0.9-4.8,3.1-5.1c7.3-0.4,10.1-3.9,10.8-11c2.5-28.4-1.5-56.1-8.3-83.6
		c-1.3-5.2-3.9-9.4-8.2-12.7c-15-11.2-31.7-17.3-50.4-17.3c-4.4-6-9.4-11.7-5.4-20c0.5-0.9,0-2.3,0-3.4c-1-5.7-1.6-11.5-2.9-17.2
		c-3.8-16.2-20.8-25.7-36.8-20.8c-16.1,5-23.7,20.7-18.8,39.2C566.6,291.2,567.8,290.4,569,289.5z"/>
	<path class="st1" d="M410.2,390.2c15.7-6.3,31.8-11.3,48.7-13.6c28.2-3.8,55.6-1,82.4,8.1c1.9,0.6,3.8,1.2,5.7,1.8
		c-1.4,4.8-2.5,9.6-4.2,14.3c-5.5,15.5-3.7,29.8,6.8,42.7c0.2,0.2,0.1,0.6,0.2,1.4c-9.2,2.7-18.4,5.3-27.7,8
		c-3.7,1.1-7.3,2.2-10.4,4.7c-10.3,8.5-10.5,21-0.5,33c20.6,24.7,41.2,49.4,61.8,74c1.8,2.2,2.4,4.1,1.2,6.7
		c-2.4,5.8-4.6,11.8-6.9,17.7c-3.7,9.5-0.6,17.3,8.8,21.7c7,3.3,15.8-0.1,20.1-7.9c3.8-7,7.3-14.2,11.1-21.2
		c1.7-3.2,1.7-6.2,0.6-9.6c-2.1-6.6-5-12.7-9.1-18.5c-11.3-15.9-21.7-32.3-32.5-48.6c-2.9-4.4-5.7-8.8-9.1-14.1
		c6.9,1.9,12.9,1.2,18.8,1.2c15.1,0,29.2-3.8,41.7-12.6c2.4-1.7,4.8-1.6,7.1-1.1c2.5,0.5,4.9,0.9,7.4,0.7c3-0.2,3.7,0.9,3.1,3.8
		c-2.2,10.1-4.1,20.3-6.1,30.4c-3.9,19.7-7.7,39.4-11.6,59.1c-1.5,7.6-1.9,15.7-5,22.7c-5.6,12.5-10.2,25.3-15.2,37.9
		c-0.7,1.8-1,3.5-0.7,5.3c1.5,7.1,7,12.7,13.3,13.7c7.9,1.2,13.8-1.8,17.7-9.2c3.1-5.7,5.7-11.7,9.1-17.2c3.5-5.7,3.8-11.2,1-17
		c-0.7-1.5-0.9-2.8-0.3-4.6c5.2-17.5,10.2-35.1,15.3-52.7c1.8-6.2,3.7-12.5,5.5-18.7c0.4,0.1,0.7,0.1,1.1,0.2c0.6,7,1.1,14,1.7,21.1
		c0.4,0,0.9-0.1,1.3-0.1c-2-6.3,0.3-12.6-0.9-19c-0.9-4.9-1.3-9.7,0.2-14.6c3.2-10.5,6.3-21,9.1-31.6c1.3-5,2.7-9.3,8.9-10.2
		c2.1-0.3,4-2.3,6-3.5c41.8,3.5,77.5,38.6,82.1,80.7c4.3,39.4-13.6,74.1-48.2,93.4c-2.6,1.4-3,3-3,5.5c0,14.2-0.1,28.3-0.1,42.5
		c-0.6-0.2-1.3-0.4-1.9-0.6c-53.1-13.1-107.1-20.2-161.7-23c-29.9-1.5-59.9-1.6-89.9-0.5c-42.1,1.5-84,5.3-125.6,11.4
		c-23,3.4-45.9,7.3-68.6,12.7c0-12.3-0.2-24.6-0.1-37c0-3-1-4.3-3.8-5.3c-39.5-14.6-63.5-50.1-62.2-91.7
		c1.4-44.5,37.1-82.9,81.3-88.1c12.1-1.4,23.9-0.7,35.6,2.4c-13.1,26.5-19.5,66.1-16,76.5c1.6-1.1,0.9-2.7,1-4
		c0.9-20.3,4.4-40.2,11.8-59.2c1.7-4.4,4.7-8.4,4.8-13.4c1.5-3.3,3-6.6,4.5-9.9c6.3-10.5,13.3-20.5,21-30.1
		c8.9-9.8,18.6-18.7,28.9-27C387,402.7,398.3,396,410.2,390.2z"/>
	<path class="st2" d="M686,474.7c-2,1.2-3.9,3.2-6,3.5c-6.2,0.9-7.5,5.3-8.9,10.2c-2.9,10.6-5.9,21.1-9.1,31.6
		c-1.5,4.9-1.2,9.8-0.2,14.6c1.2,6.3-1,12.7,0.9,19c-0.4,0-0.9,0.1-1.3,0.1c-0.6-7-1.1-14-1.7-21.1c-0.4-0.1-0.7-0.1-1.1-0.2
		c-1.8,6.2-3.7,12.5-5.5,18.7c-5.1,17.6-10.1,35.2-15.3,52.7c-0.5,1.8-0.4,3.1,0.3,4.6c2.9,5.9,2.5,11.4-1,17
		c-3.4,5.5-6,11.5-9.1,17.2c-3.9,7.3-9.8,10.4-17.7,9.2c-6.3-0.9-11.8-6.6-13.3-13.7c-0.4-1.8,0-3.5,0.7-5.3
		c5-12.7,9.6-25.5,15.2-37.9c3.1-6.9,3.5-15.1,5-22.7c3.9-19.7,7.7-39.4,11.6-59.1c2-10.2,3.9-20.3,6.1-30.4
		c0.6-2.9-0.1-4.1-3.1-3.8c-2.5,0.2-4.9-0.2-7.4-0.7c-2.4-0.5-4.8-0.6-7.1,1.1c-12.5,8.8-26.6,12.6-41.7,12.6
		c-5.9,0-11.9,0.7-18.8-1.2c3.4,5.2,6.2,9.7,9.1,14.1c10.7,16.2,21.2,32.7,32.5,48.6c4.1,5.8,7,11.9,9.1,18.5
		c1.1,3.4,1.1,6.5-0.6,9.6c-3.7,7.1-7.3,14.2-11.1,21.2c-4.3,7.8-13.1,11.2-20.1,7.9c-9.4-4.4-12.5-12.2-8.8-21.7
		c2.3-5.9,4.5-11.8,6.9-17.7c1.1-2.7,0.6-4.6-1.2-6.7c-20.7-24.6-41.2-49.3-61.8-74c-10-12-9.8-24.5,0.5-33
		c3.1-2.5,6.7-3.6,10.4-4.7c9.2-2.7,18.5-5.3,27.7-8c-0.1-0.8-0.1-1.2-0.2-1.4c-10.6-12.9-12.3-27.2-6.8-42.7
		c1.7-4.7,2.8-9.5,4.2-14.3c3-9.5,6.5-18.8,8.8-28.4c4.4-18.3,17.1-26.7,34.3-30.2c2-0.4,3.9-0.7,5.9-1.1c1.3,0.7,2.6,1.5,3.9,2.2
		c9,5,16.2,3.6,22.8-4.3c2.7-3.2,4.5-6.9,6.5-10.5c18.8,0.1,35.5,6.1,50.4,17.3c4.3,3.3,7,7.5,8.2,12.7c6.8,27.5,10.8,55.2,8.3,83.6
		c-0.6,7.2-3.5,10.6-10.8,11c-4,0.2-4.4,1.3-3.1,5.1c1.7,5,4.1,9.7,5.6,14.7C689.7,464.3,689.7,469.7,686,474.7z M581,436.3
		c0.7,1.6,1.4,3.2,2,4.8c-10.1,3.6-15.1,10.7-11.6,18.5c2.4,5.4,3.2,10.9,4.5,16.4c1.4,6,5.3,9.5,11,10.7c5.5,1.1,10.3-0.7,13.7-5.2
		c3.6-4.9,3.9-10.6,0.8-15.4c-2.4-3.8-1.1-5.1,1.8-7.3c10.2-7.5,10.2-7.9,3.6-19c-0.3-0.4-0.5-0.9-0.7-1.3c-1.8-1.7,0.3-2.3,1.5-3.9
		c-5.1,1-9.7,1.6-14.1,2.8c-3.5,1-4.7,0.1-4.4-3.4c3.4-8.3,1.6-16.5,0-24.8c-0.8-6.3-2.5-12.3-5-19c-2.4,4.6-5,8.1-6.1,12.2
		c-3.6,5-6.1,10.7-9,16c-0.4,0.7-0.9,1.5-0.4,2.3C571.5,426.9,574.6,433,581,436.3z"/>
	<path class="st1" d="M268.9,796.9c0.1-14.7,0.2-29.4,0.3-44c0.3,0,0.7,0,1,0c37.7-8.4,75.7-14.1,114.1-18.3
		c37.1-4.1,74.3-6,111.5-6.3c29.1-0.2,58.2,0.9,87.2,3.4c22.7,2,45.3,4.6,67.8,8.1c22.2,3.4,44.1,8.3,65.9,13.2
		c0.1,15,0.2,30,0.3,45c-1.1,11.8-8.3,17.3-20.1,15.3c-21.3-3.6-42.7-6.8-64.1-9.5c-39.5-5-79.2-7.5-118.9-8.4
		c-36.8-0.9-73.5,0.7-110.3,3.4c-38.3,2.9-76.4,7.9-114.2,14.3C276.7,815.2,269.7,809.7,268.9,796.9z"/>
	<path class="st3" d="M347.2,437.1c-7.7,9.5-14.6,19.6-21,30.1c-12.1-19.9-25.3-39-38-58.5c-3.6-5.6-7.2-11.2-10.8-16.7
		c-1.2-1.9-2.5-3.5-5.2-2.8c-18.4,4.6-35.6,0.1-52.1-7.7c-27.8-13.3-48.5-34.4-64.5-60.4c-10.6-17.3-18-35.8-21.9-55.8
		c-1.7-8.7-1.7-17.4-1.4-27.8c4.9,7.2,9,13.2,13,19.4c13.1,20,26.2,40,39.3,60c3.5,5.4,7,10.9,10.6,16.3c3.3,4.9,7.9,6.1,11.9,3.4
		c4.8-3.3,5.5-7.7,2.1-13c-21.9-33.3-43.8-66.6-65.7-99.9c-7.6-11.5-7.5-14.5,0.4-25.6c7.9-11.1,7.9-11.1,15.2-0.1
		c18.4,27.9,36.7,55.8,55.1,83.7c5.9,9,11.8,18.1,17.8,27.1c3.4,5.2,7.9,6.5,12.2,3.8c4.5-2.9,5.3-7.9,1.9-13.1
		c-17.8-27.1-35.6-54.1-53.4-81.2c-8-12.2-15.8-24.6-24-36.7c-1.7-2.6-0.9-3.4,1.4-4.2c7.6-2.6,15.5-3.6,23.5-3.2
		c2.6,0.1,3.7,1.8,4.9,3.7c18.2,27.8,36.4,55.6,54.6,83.4c5.2,7.9,10.3,15.9,15.5,23.8c2.4,3.6,5.7,4.9,9.9,4.1
		c3.5-0.6,5.4-2.9,6.3-6.3c0.9-3.2-0.9-5.5-2.4-7.8c-13.2-20.3-26.5-40.6-39.8-60.9c-6.5-9.9-13-19.7-19.4-29.6
		c-0.7-1.1-1.6-2.1-1.6-4.2c6.1,1.1,11.2,4.2,16.2,7.2c24.6,14.5,43.3,34.9,57.8,59.3c11.4,19.1,19,39.6,21.3,61.6
		c2.1,20.4,0.4,40.6-11.8,58.4c-1.3,2-2.3,3.6-0.6,6.3c13.8,20.8,27.3,41.7,41,62.5C345.8,436.1,346.5,436.6,347.2,437.1z"/>
	<path class="st3" d="M268.9,796.9c0.8,12.8,7.8,18.3,20.6,16.2c37.9-6.4,75.9-11.4,114.2-14.3c36.7-2.8,73.5-4.3,110.3-3.4
		c39.8,0.9,79.4,3.5,118.9,8.4c21.4,2.7,42.8,5.9,64.1,9.5c11.8,2,19-3.4,20.1-15.3c12,0.7,24.1,1.4,36.1,2.1
		c-1,5.3,1.5,8.5,6.2,10.4c3.8,1.6,7.5,3.7,11.4,4.9c18.9,5.8,36.3,2.8,52-9.4c5.3,1.1,10.7,1.9,16,3.3c3.2,0.8,8.4,1.3,8.3,4.9
		c-0.1,3.3-5.2,4-8.5,4.7c-15.4,3.3-31,4.9-46.7,6.3c-19.8,1.8-39.6,3.1-59.5,4.1c-14.2,0.7-28.5,1.4-42.7,2
		c-23.2,1-46.5,1.4-69.7,2.2c-11.3,0.4-22.6,0.4-33.9,0.7c-56.4,1.6-112.9,1.4-169.3,0.7c-20.8-0.2-41.6,0.2-62.3-1
		c-12.3-0.7-24.6-0.1-36.9-0.8c-18.2-1.1-36.5-1.2-54.7-2.1c-12.7-0.6-25.5-1.1-38.2-2c-19.1-1.4-38.3-2.4-57.4-4.6
		c-12.5-1.5-25-2.7-37.3-5.3c-2.3-0.5-4.4-1.4-6.6-2.3c-1.3-0.6-3.2-1-2.9-2.9c0.2-1.6,1.7-2.2,3.2-2.8c8-2.9,16.4-3.8,24.8-5
		c1.1,1.5,2.6,2.5,4.2,3.4c19.4,11.4,38.9,11.8,58.9,1.4c4.7-2.4,7.4-5.3,6.5-10.8c7.9-2,16.1-1.1,24.1-1.7
		C251,797.6,260,797,268.9,796.9z"/>
	<path class="st3" d="M410.2,390.2c-11.9,5.8-23.2,12.4-34.1,19.9c0-29.8-0.1-59.6,0-89.5c0-3.7-1-5.3-4.6-6.8
		c-16.8-6.9-28.7-19.5-37.9-34.7c-11.8-19.7-17.6-41.2-19.7-64.1c-2.9-31.7,1.9-61.9,16.4-90.3c8.5-16.6,20.4-30.4,37.4-38.9
		c22.1-11.1,45.9-5.9,63.7,10c21,18.8,31.2,43.3,36.6,70.3c2.9,14.2,4,28.7,2.9,43.1c-2.2,29.4-9.4,57.4-28.2,81
		c-8.1,10.2-17.7,19-30.3,23.7c-2.7,1-3.5,2.4-3.5,5.2c0.1,22.3,0,44.7,0.1,67C409,387.6,408.7,389.2,410.2,390.2z M327,198.6
		c-0.4,8.4,0.7,16.6,2.1,24.8c4,23.1,12.3,44.3,30.2,60.2c13.7,12.1,29.7,17.3,47.9,10.5c18.8-7,30-21.6,38-38.9
		c10.2-22.3,13.5-45.8,11-70.3c-2.3-22.8-8.9-43.9-23.3-61.9c-10.5-13.1-23.9-21.9-41.3-21.7c-17,0.2-30.1,8.9-40.3,21.7
		C333.5,144.9,327.6,171,327,198.6z"/>
	<path class="st4" d="M269.2,723.8c0-8.3,0-16.6,0-24.9c41-8.8,82.3-15.1,124-19.3c33.5-3.4,67-5.1,100.6-5.4
		c34.1-0.3,68.2,1.2,102.2,4.5c20.7,2,41.3,4.7,61.8,8c19.9,3.2,39.5,7.6,59,12.1c0,8.3,0,16.6,0,24.9c-0.8-0.2-1.6-0.5-2.4-0.7
		c-61.1-15-123.3-22-186.1-23.9c-27-0.8-54-0.3-80.9,1c-10.8,0.5-21.6,1.2-32.4,2.1c-25.7,2.2-51.3,4.9-76.8,8.8
		C315.1,714.5,292,718.4,269.2,723.8z"/>
	<path class="st4" d="M269.2,750.8c0-8.3,0-16.6,0-24.9c41-8.8,82.3-15.1,124-19.3c33.5-3.3,67-5.1,100.6-5.4
		c34.1-0.3,68.2,1.2,102.2,4.5c20.7,2,41.3,4.7,61.8,8c19.9,3.2,39.5,7.6,59,12.1c0,8.3,0,16.6,0,24.9c-0.8-0.2-1.6-0.5-2.4-0.7
		c-61.1-15-123.3-22-186.1-23.9c-27-0.8-54-0.3-80.9,1c-10.8,0.5-21.6,1.2-32.4,2.1c-25.7,2.2-51.3,4.9-76.8,8.8
		C315.1,741.5,292,745.4,269.2,750.8z"/>
	<path class="st5" d="M822.9,805.9c-15.7,12.3-33.1,15.2-52,9.4c-3.9-1.2-7.6-3.3-11.4-4.9c-4.7-2-7.2-5.1-6.2-10.4
		c1.2-14.4,2.5-28.8,3.6-43.2c1-13.4,1.9-26.9,2.9-40.3c0.3-4.3,3.8-5.5,7.1-6.7c-0.1,2.4,1.1,3.9,3.1,5.2c11.4,7.5,25.7,7.3,37-0.5
		c1.6-1.1,2-2.5,2.7-4c2.9,1.2,5.3,2.9,5.6,6.4C817.8,746.6,820.3,776.3,822.9,805.9z"/>
	<path class="st5" d="M218.1,799.9c0.9,5.5-1.9,8.4-6.5,10.8c-20,10.4-39.5,9.9-58.9-1.4c-1.6-0.9-3.1-2-4.2-3.4
		c1-14.2,1.9-28.5,3-42.7c1.1-15.4,2.3-30.8,3.4-46.2c0.3-4.6,3.7-5.8,7.2-7.1c-0.1,2.4,1.1,3.9,3.1,5.2c11.4,7.5,25.7,7.3,37-0.5
		c1.6-1.1,2-2.5,2.7-4c4.1,1.5,5.6,4.6,5.9,8.9c2,24.9,4.2,49.8,6.4,74.6C217.3,796,217.7,798,218.1,799.9z"/>
	<path class="st6" d="M629.2,314.4c-2,3.6-3.8,7.3-6.5,10.5c-6.6,7.9-13.8,9.3-22.8,4.3c-1.3-0.7-2.6-1.5-3.9-2.2
		c0-4.6-1.3-7.5-6.7-8.9c-12.9-3.3-19.6-13.4-20.4-28.5c8.8-8,19.1-12.7,30.6-15.6c5.1-1.3,8.3-0.3,10.8,4.4
		c1.8,3.3,4.6,6.1,6.5,9.4c1.7,2.9,3.9,3.8,7,3.1c0,1.2,0.4,2.5,0,3.4C619.8,302.6,624.8,308.4,629.2,314.4z"/>
	<path class="st7" d="M623.8,290.9c-3.1,0.7-5.3-0.2-7-3.1c-1.9-3.3-4.7-6.1-6.5-9.4c-2.5-4.7-5.7-5.7-10.8-4.4
		c-11.4,2.9-21.8,7.6-30.6,15.6c-1.2,0.9-2.4,1.7-3.6,2.6c-4.9-18.5,2.6-34.2,18.8-39.2c15.9-4.9,33,4.6,36.8,20.8
		C622.2,279.4,622.8,285.2,623.8,290.9z"/>
	<path class="st8" d="M204.8,710.6c-0.7,1.4-1.2,2.9-2.7,4c-11.2,7.8-25.6,8-37,0.5c-2-1.3-3.2-2.8-3.1-5.2c0-3.2,0.4-6.4,0.1-9.5
		c-0.5-4.6,1.6-7.3,5.7-8.7c10.3-3.7,20.5-3.7,30.8-0.1c4,1.4,6.1,4,5.8,8.7C204,703.6,203.5,707.2,204.8,710.6z"/>
	<path class="st8" d="M809.7,710.6c-0.7,1.4-1.2,2.9-2.7,4c-11.2,7.8-25.6,8-37,0.5c-2-1.3-3.2-2.8-3.1-5.2c0-3.2,0.4-6.4,0.1-9.5
		c-0.5-4.6,1.6-7.3,5.7-8.7c10.3-3.7,20.5-3.7,30.8-0.1c4,1.4,6.1,4,5.8,8.7C808.9,703.6,808.4,707.2,809.7,710.6z"/>
	<path class="st9" d="M269.2,750.8c22.8-5.4,45.9-9.3,69.1-12.8c25.5-3.8,51.1-6.6,76.8-8.8c10.8-0.9,21.6-1.6,32.4-2.1
		c27-1.3,53.9-1.8,80.9-1c62.8,1.9,125,8.8,186.1,23.9c0.8,0.2,1.6,0.5,2.4,0.7c0,0.7,0,1.4,0,2.1c-21.9-4.9-43.8-9.8-65.9-13.2
		c-22.5-3.5-45.1-6.1-67.8-8.1c-29-2.5-58.1-3.6-87.2-3.4c-37.2,0.3-74.4,2.3-111.5,6.3c-38.3,4.2-76.4,9.9-114.1,18.3
		c-0.3,0.1-0.7,0-1,0C269.2,752.2,269.2,751.5,269.2,750.8z"/>
	<path class="st9" d="M716.8,698.9c-19.6-4.5-39.2-8.9-59-12.1c-20.5-3.3-41.1-6-61.8-8c-34-3.4-68.1-4.8-102.2-4.5
		c-33.6,0.3-67.1,2-100.6,5.4c-41.7,4.2-83,10.5-124,19.3c0-0.7,0-1.4,0-2.1c22.6-5.5,45.6-9.4,68.6-12.7
		c41.7-6.1,83.5-9.9,125.6-11.4c30-1,59.9-1,89.9,0.5c54.6,2.8,108.6,9.9,161.7,23c0.6,0.2,1.3,0.4,1.9,0.6
		C716.8,697.5,716.8,698.2,716.8,698.9z"/>
	<path class="st9" d="M716.8,725.9c-19.6-4.5-39.2-8.9-59-12.1c-20.5-3.3-41.1-6-61.8-8c-34-3.4-68.1-4.8-102.2-4.5
		c-33.6,0.3-67.1,2.1-100.6,5.4c-41.7,4.2-83,10.5-124,19.3c0-0.7,0-1.4,0-2.1c22.8-5.4,45.9-9.3,69.1-12.8
		c25.5-3.8,51.1-6.6,76.8-8.8c10.8-0.9,21.6-1.6,32.4-2.1c27-1.3,53.9-1.8,80.9-1c62.8,1.9,125,8.8,186.1,23.9
		c0.8,0.2,1.6,0.5,2.4,0.7C716.8,724.5,716.8,725.2,716.8,725.9z"/>
	<path class="st9" d="M321.6,477.1c-0.1,5-3.1,9-4.8,13.4c-7.4,19.1-10.8,38.9-11.8,59.2c-0.1,1.3,0.6,3-1,4
		c-3.5-10.5,2.8-50,16-76.5C320.6,477.1,321.1,477.1,321.6,477.1z"/>
	<path class="st10" d="M606,438.6c0.2,0.4,0.5,0.9,0.7,1.3c6.6,11,6.6,11.4-3.6,19c-2.9,2.1-4.2,3.5-1.8,7.3
		c3.1,4.9,2.8,10.6-0.8,15.4c-3.4,4.5-8.2,6.4-13.7,5.2c-5.7-1.2-9.6-4.7-11-10.7c-1.3-5.5-2.1-11-4.5-16.4
		c-3.4-7.8,1.6-14.9,11.6-18.5C590.7,440.3,598.3,439.4,606,438.6z"/>
	<path class="st4" d="M589,409.3c1.6,8.3,3.4,16.5,0,24.8c-2.7,0.7-5.3,1.5-8,2.2c-6.4-3.3-9.5-9.4-12.7-15.4
		c-0.4-0.8,0-1.6,0.4-2.3c3-5.4,5.4-11,9-16C581.5,404.8,585.2,407,589,409.3z"/>
	<path class="st11" d="M589,409.3c-3.7-2.3-7.4-4.5-11.2-6.8c1.2-4.2,3.7-7.6,6.1-12.2C586.5,397,588.2,403,589,409.3z"/>
	<path class="st7" d="M581,436.3c2.7-0.7,5.3-1.5,8-2.2c-0.3,3.4,0.9,4.4,4.4,3.4c4.4-1.3,9-1.8,14.1-2.8c-1.2,1.6-3.3,2.2-1.5,3.9
		c-7.7,0.9-15.3,1.7-23,2.6C582.3,439.5,581.7,437.9,581,436.3z"/>
	<path class="st12" d="M327,198.6c0.6-27.6,6.5-53.7,24.2-75.7c10.3-12.8,23.4-21.5,40.3-21.7c17.4-0.2,30.8,8.6,41.3,21.7
		c14.4,18,21,39.1,23.3,61.9c2.5,24.5-0.8,48.1-11,70.3c-7.9,17.3-19.2,31.9-38,38.9c-18.2,6.8-34.2,1.6-47.9-10.5
		c-17.9-15.9-26.2-37.1-30.2-60.2C327.7,215.2,326.6,207,327,198.6z"/>
</g>
</svg>
